<?xml version="1.0" encoding="UTF-8"?>
<!-- Generator: Adobe Illustrator 25.4.1, SVG Export Plug-In . SVG Version: 6.00 Build 0)  -->
<svg xmlns="http://www.w3.org/2000/svg" xmlns:xlink="http://www.w3.org/1999/xlink" version="1.1" id="Capa_1" x="0px" y="0px" viewBox="0 0 512 512" style="enable-background:new 0 0 512 512;" xml:space="preserve" width="512" height="512">
<path style="fill:#FF7B57;" d="M447.931,194.997c-17.705-13.524-38.519-22.393-60.536-25.796h0.095v-60.718  c16.405-7.662,26.92-24.098,27-42.204v-1.419c-0.069-25.805-20.972-46.708-46.777-46.777h-1.419  c-25.806,0.069-46.708,20.972-46.777,46.777v1.419c0.08,18.106,10.595,34.542,27,42.204v60.845  c-23.106,3.533-44.869,13.109-63.084,27.757L116.448,67.036c7.593-28.426-9.297-57.625-37.723-65.218  C50.299-5.775,21.1,11.114,13.507,39.54c-7.593,28.426,9.296,57.625,37.723,65.218c13.592,3.63,28.067,1.738,40.268-5.266  l164.177,127.809c-30.264,45.659-29.451,105.2,2.05,150.014l-49.963,49.963c-4.011-1.277-8.187-1.958-12.396-2.019  c-23.953,0-43.37,19.417-43.37,43.37S171.413,512,195.366,512c23.953,0,43.37-19.418,43.37-43.371  c-0.059-4.208-0.739-8.386-2.019-12.396l49.427-49.426c58.49,44.676,142.122,33.478,186.799-25.012  C517.619,323.305,506.421,239.673,447.931,194.997z M367.082,369.272l-0.158-0.032c-37.767-0.087-68.313-30.774-68.225-68.541  c0.087-37.767,30.774-68.312,68.541-68.226c37.718,0.087,68.243,30.697,68.226,68.415  C435.465,338.656,404.849,369.272,367.082,369.272z"/>















</svg>
