<?xml version="1.0" encoding="UTF-8"?>
<!-- Generator: Adobe Illustrator 25.4.1, SVG Export Plug-In . SVG Version: 6.00 Build 0)  -->
<svg xmlns="http://www.w3.org/2000/svg" xmlns:xlink="http://www.w3.org/1999/xlink" version="1.1" id="Capa_1" x="0px" y="0px" viewBox="0 0 512 512" style="enable-background:new 0 0 512 512;" xml:space="preserve" width="512" height="512">
<g>
	<path style="fill:#00A1E2;" d="M144.33,246.588c-2.666-0.409-5.356-0.639-8.052-0.688c-6.058-0.075-8.635,2.149-8.617,2.146   c-1.787,1.261-2.653,3.142-2.653,5.738c0,1.655,0.301,2.948,0.89,3.856c0.386,0.604,0.548,0.832,1.712,1.761l0.017,0.01   c-0.019-0.006,2.653,2.096,8.692,1.732c4.252-0.256,8.015-1.066,8.015-1.066h-0.004V246.588z"/>
	<path style="fill:#00A1E2;" d="M321.894,228.942c-3.913,0-6.683,1.335-8.504,4.12c-1.833,2.803-2.766,6.792-2.766,11.871   c0,5.08,0.928,9.106,2.766,11.928c1.825,2.796,4.609,4.158,8.504,4.158s6.69-1.373,8.541-4.177   c1.854-2.839,2.802-6.843,2.803-11.918c-0.001-5.075-0.938-9.062-2.803-11.862C328.591,230.291,325.807,228.942,321.894,228.942z"/>
	<path style="fill:#00A1E2;" d="M202.659,228.717c-3.894,0-6.664,1.523-8.485,4.308c-1.213,1.824-1.988,4.175-2.407,6.995   l21.165,0.004c-0.201-2.729-0.736-5.164-1.957-6.999C209.131,230.248,206.553,228.717,202.659,228.717z"/>
	<path style="fill:#00A1E2;" d="M401.563,125.308c-15.366-0.008-30.561,3.23-44.589,9.501   c-15.804-28.032-45.153-46.846-79.018-46.846c-25.399,0-48.389,10.648-64.908,27.844l0.019,0.098   c-18.061-23.799-46.846-39.133-79.018-39.133c-54.936,0-99.525,44.401-99.525,99.338c-0.014,13.592,2.772,27.041,8.184,39.509   C17.196,230.669,0,258.514,0,290.497c0,47.6,38.192,86.355,85.415,86.355c5.905,0.004,11.794-0.609,17.572-1.828   c12.981,35.182,46.658,60.204,86.355,60.204c38.004,0,70.646-23.142,84.662-56.065c11.016,5.372,23.114,8.151,35.37,8.128   c30.102,0,56.536-16.744,70.364-41.391c7.112,1.415,14.374,2.163,21.824,2.163C462.52,348.063,512,298.207,512,236.686   S462.52,125.308,401.563,125.308z M110.053,254.479c0,8.992-6.528,14.58-17.026,14.58c-5.155,0-10.084-0.809-15.314-3.574   c-0.978-0.566-1.955-1.07-2.916-1.767c-0.104-0.148-0.54-0.324-0.218-1.163l-0.008-0.015l2.07-5.757   c0.327-0.986,1.08-0.657,1.381-0.475c0.57,0.348,0.992,0.658,1.731,1.09c6.115,3.864,11.757,3.895,13.527,3.895   c4.553,0,7.394-2.428,7.394-5.683v-0.177c0-3.537-4.365-4.884-9.407-6.434l-1.114-0.347c-6.923-1.976-14.336-4.835-14.336-13.603   v-0.179c0-8.315,6.717-14.129,16.33-14.129l1.048-0.004c5.644,0,11.1,1.637,15.051,4.045c0.359,0.215,0.709,0.63,0.51,1.182   c-0.188,0.526-1.943,5.225-2.145,5.757c-0.371,0.984-1.39,0.325-1.39,0.325c-3.443-1.901-8.824-3.405-13.339-3.405   c-4.064,0-6.698,2.164-6.698,5.099v0.175c0,3.425,4.496,4.896,9.708,6.585l0.901,0.292c6.886,2.164,14.261,5.192,14.261,13.508   V254.479z M153.12,266.049c0,0-1.099,0.299-2.088,0.526c-2.479,0.537-4.969,1.021-7.469,1.452   c-2.935,0.495-5.964,0.751-9.012,0.751c-2.897,0-5.531-0.269-7.864-0.802c-2.352-0.526-4.389-1.414-6.039-2.614   c-1.659-1.202-2.991-2.8-3.876-4.647c-0.903-1.862-1.36-4.139-1.36-6.773c0-2.596,0.536-4.891,1.588-6.848   c1.042-1.939,2.516-3.613,4.308-4.892c1.787-1.287,3.876-2.254,6.19-2.879c2.295-0.62,4.76-0.937,7.3-0.937   c1.863,0,3.424,0.043,4.628,0.132l0.028,0.069c0,0,2.352,0.213,4.892,0.581v-1.255c0-3.95-0.826-5.83-2.446-7.074   c-1.656-1.27-4.139-1.919-7.337-1.919c0,0-7.224-0.094-12.925,3.011c-0.263,0.156-0.487,0.244-0.487,0.244   s-0.713,0.251-0.975-0.481l-2.107-5.644c-0.32-0.818,0.267-1.18,0.267-1.18c2.671-2.093,9.143-3.35,9.143-3.35   c2.145-0.431,5.738-0.731,7.958-0.731c5.926,0,10.498,1.373,13.621,4.102c3.134,2.728,4.722,7.149,4.722,13.095l0.017,27.092   C153.798,265.078,153.854,265.862,153.12,266.049z M173.025,267.004c0,0.497-0.354,0.901-0.85,0.901h-7.87   c-0.499,0-0.852-0.404-0.852-0.901v-63.342c0-0.495,0.354-0.896,0.852-0.896h7.87c0.497,0,0.85,0.4,0.85,0.896V267.004z    M222.212,246.595c-0.081,0.765-0.864,0.771-0.864,0.771l-29.726-0.022c0.169,4.516,1.26,7.695,3.443,9.877   c2.145,2.132,5.569,3.492,10.16,3.5c7.055,0.019,10.065-1.407,12.191-2.201c0,0,0.82-0.294,1.12,0.518l1.938,5.437   c0.389,0.917,0.077,1.234-0.25,1.419c-1.844,1.034-6.359,2.944-14.938,2.973c-4.177,0.013-7.789-0.587-10.78-1.744   c-3.01-1.167-5.512-2.822-7.469-4.948c-1.938-2.107-3.39-4.646-4.29-7.544c-0.897-2.879-1.347-6.059-1.347-9.482   c0-3.349,0.435-6.547,1.298-9.464c0.865-2.953,2.226-5.531,4.026-7.713c1.806-2.183,4.102-3.929,6.83-5.212   c2.728-1.273,6.096-1.9,9.802-1.9c2.922-0.005,5.815,0.582,8.504,1.726c1.863,0.79,3.725,2.239,5.644,4.289   c1.204,1.299,3.055,4.14,3.8,6.942l0.021,0.006C223.23,240.499,222.244,246.279,222.212,246.595z M246.732,269.044   c-5.155,0-10.084-0.81-15.315-3.575c-0.978-0.566-1.958-1.07-2.916-1.767c-0.107-0.148-0.544-0.323-0.222-1.162l-0.023-0.016   l2.07-5.757c0.303-0.94,1.189-0.595,1.379-0.474c0.561,0.361,0.993,0.658,1.733,1.089c6.096,3.864,11.753,3.895,13.527,3.895   c4.553,0,7.394-2.427,7.394-5.682v-0.177c0-3.537-4.346-4.884-9.407-6.435l-1.112-0.346c-6.923-1.976-14.336-4.836-14.336-13.603   v-0.179c0-8.316,6.716-14.13,16.33-14.13l1.05-0.003c5.644,0,11.1,1.637,15.051,4.045c0.357,0.214,0.709,0.63,0.508,1.182   c-0.169,0.526-1.927,5.225-2.126,5.757c-0.373,0.983-1.392,0.325-1.392,0.325c-3.462-1.902-8.824-3.405-13.339-3.405   c-4.064,0-6.698,2.163-6.698,5.099v0.175c0,3.424,4.496,4.896,9.708,6.585l0.901,0.292c6.905,2.163,14.261,5.192,14.261,13.508   v0.177C263.759,263.456,257.23,269.044,246.732,269.044z M298.679,228.918c-0.171,0.894-0.995,0.863-0.995,0.863h-9.776   l-6.686,37.833c-0.702,3.911-1.578,7.268-2.608,9.971c-1.041,2.729-2.128,4.729-3.857,6.638c-1.599,1.771-3.407,3.078-5.484,3.829   c-2.064,0.745-4.553,1.129-7.285,1.129c-1.304,0-2.696-0.024-4.348-0.414c-1.189-0.28-1.838-0.48-2.711-0.792   c-0.372-0.134-0.668-0.597-0.457-1.184c0.207-0.595,1.955-5.401,2.201-6.032c0.303-0.771,1.072-0.478,1.072-0.478   c0.529,0.222,0.896,0.38,1.601,0.52c0.706,0.141,1.661,0.262,2.38,0.262c1.291,0,2.468-0.158,3.492-0.503   c1.24-0.416,1.958-1.129,2.717-2.098c0.783-1.001,1.419-2.38,2.07-4.22c0.66-1.864,1.257-4.325,1.778-7.316l6.655-37.145h-6.559   c-0.79,0.004-1.044-0.365-0.967-0.956l1.106-6.171c0.173-0.897,0.995-0.863,0.995-0.863h6.737l0.363-2.012   c1.007-5.958,3.014-10.486,5.964-13.459c2.971-2.995,7.202-4.512,12.57-4.512c1.351-0.015,2.701,0.09,4.034,0.312   c0.991,0.173,1.97,0.405,2.933,0.696c0.211,0.083,0.779,0.364,0.546,1.034l-2.269,6.231c-0.19,0.469-0.32,0.755-1.287,0.459   c-0.241-0.071-0.598-0.175-1.518-0.37c-0.668-0.14-1.545-0.247-2.438-0.247c-1.079-0.015-2.154,0.141-3.185,0.459   c-0.941,0.309-1.793,0.839-2.485,1.547c-0.741,0.743-1.616,1.825-2.081,3.166c-1.089,3.143-1.52,6.479-1.567,6.694h9.488   c0.794-0.004,1.046,0.365,0.969,0.956L298.679,228.918z M341.987,254.359c-0.865,2.916-2.203,5.475-3.989,7.62   c-1.787,2.145-4.064,3.86-6.735,5.079c-2.672,1.22-5.832,1.84-9.388,1.84s-6.717-0.62-9.407-1.84   c-2.672-1.223-4.946-2.935-6.735-5.079c-1.787-2.146-3.129-4.704-3.989-7.62c-0.856-2.897-1.291-6.058-1.291-9.426   c0-3.367,0.435-6.528,1.291-9.426c0.865-2.916,2.205-5.475,3.989-7.619c1.787-2.145,4.064-3.868,6.735-5.117   c2.69-1.248,5.832-1.882,9.407-1.882s6.735,0.63,9.407,1.882c2.69,1.241,4.946,2.973,6.735,5.117   c1.787,2.145,3.125,4.703,3.989,7.619h-0.019c0.854,2.897,1.289,6.077,1.289,9.426   C343.276,248.302,342.841,251.462,341.987,254.359z M378.362,223.223l0.019-0.122c-0.282,0.809-1.729,4.871-2.239,6.228   c-0.194,0.516-0.512,0.865-1.084,0.801c0,0-1.703-0.398-3.255-0.398c-1.349,0-2.692,0.188-3.989,0.561   c-1.382,0.429-2.64,1.184-3.669,2.201c-1.078,1.054-1.953,2.523-2.596,4.365c-0.653,1.862-0.98,4.816-0.98,7.789v22.2   c0,0.497-0.402,0.899-0.899,0.9h-7.789c-0.497-0.001-0.9-0.403-0.901-0.9v-44.213c0-0.497,0.357-0.897,0.85-0.897h7.601   c0.5,0,0.852,0.4,0.852,0.897l0.004,3.612c1.129-1.543,3.164-2.877,5.004-3.706c1.863-0.836,3.932-1.464,7.657-1.23   c1.938,0.12,4.461,0.652,4.967,0.845c0.009,0.003,0.017,0.007,0.025,0.01C378.349,222.341,378.538,222.814,378.362,223.223z    M415.857,266.577c-3.311,1.312-7.921,2.22-12.417,2.22c-7.601,0-13.433-2.182-17.309-6.509c-3.876-4.309-5.832-10.197-5.832-17.46   c0-3.367,0.48-6.547,1.43-9.444c0.959-2.916,2.389-5.475,4.271-7.619c1.881-2.146,4.252-3.87,7.055-5.118   c2.803-1.249,6.077-1.879,9.764-1.879c2.483,0,4.685,0.15,6.585,0.44c2.032,0.307,4.715,1.034,5.851,1.479   c0.209,0.081,0.781,0.363,0.548,1.031c-0.826,2.333-1.394,3.856-2.164,5.982c-0.329,0.905-1.016,0.605-1.016,0.605   c-2.897-0.906-5.663-1.326-9.275-1.326c-4.327,0-7.601,1.468-9.727,4.29c-2.154,2.859-3.354,6.585-3.368,11.552   c-0.019,5.456,1.336,9.481,3.763,11.984c2.408,2.5,5.795,3.763,10.028,3.763c1.712,0,3.337-0.115,4.797-0.345   c1.449-0.226,2.809-0.677,4.083-1.164c0,0,0.832-0.322,1.119,0.53h0.007l2.164,5.945   C416.49,266.272,415.857,266.577,415.857,266.577z M459.848,246.595c-0.081,0.765-0.864,0.771-0.864,0.771l-29.726-0.022   c0.169,4.516,1.26,7.695,3.443,9.877c2.145,2.132,5.55,3.492,10.159,3.5c7.055,0.019,10.065-1.407,12.191-2.201   c0,0,0.82-0.294,1.118,0.518l1.938,5.437c0.388,0.917,0.077,1.234-0.252,1.419c-1.844,1.034-6.359,2.944-14.938,2.973   c-4.158,0.013-7.789-0.587-10.78-1.744c-3.01-1.167-5.513-2.822-7.469-4.948c-1.957-2.107-3.407-4.646-4.308-7.544   c-0.892-2.879-1.345-6.059-1.345-9.482c0-3.349,0.437-6.547,1.302-9.464c0.865-2.953,2.222-5.531,4.026-7.713   c1.806-2.183,4.101-3.929,6.829-5.212c2.728-1.273,6.096-1.9,9.802-1.9c2.922-0.005,5.815,0.582,8.504,1.726   c1.863,0.79,3.725,2.239,5.644,4.289c1.204,1.299,3.053,4.14,3.8,6.942l0.04,0.006C460.866,240.499,459.88,246.279,459.848,246.595   z"/>
	<path style="fill:#00A1E2;" d="M440.278,228.717c-3.894,0-6.666,1.523-8.485,4.308c-1.215,1.824-1.988,4.175-2.407,6.995   l21.165,0.004c-0.199-2.729-0.734-5.164-1.957-6.999C446.75,230.248,444.172,228.717,440.278,228.717z"/>
</g>















</svg>
