<svg width="104" height="123" viewBox="0 0 104 123" fill="none" xmlns="http://www.w3.org/2000/svg">
<g clip-path="url(#clip0_2_368)">
<path d="M101.745 33.85L34.0672 20.0087C29.6297 19.0977 25.4568 22.5065 25.4568 27.0322V59.0936V60.798V92.859C25.4568 97.3847 29.6297 100.794 34.0672 99.8829L101.745 86.0415" stroke="white" stroke-width="3.43015" stroke-miterlimit="10" stroke-linecap="round" stroke-linejoin="round"/>
<path d="M49.4884 8.87123C49.4886 2.51319 55.9876 -1.73892 61.8072 0.695182L62.0842 0.816015L62.0903 0.819543L98.2952 17.5403C101.472 18.9726 103.464 22.1461 103.465 25.592V39.7567C103.465 44.9242 99.0638 49.0053 93.9221 48.6075L52.9185 45.5471V74.344L93.9158 71.2834L94.3962 71.2588C99.3203 71.1388 103.463 75.1151 103.434 80.1051V94.2698C103.434 97.7424 101.39 100.869 98.2708 102.32L98.2654 102.321L62.0912 119.012L62.0921 119.013C56.1931 121.743 49.4884 117.443 49.4884 110.962V97.4634C49.2226 97.5681 48.9381 97.6377 48.6391 97.6594L28.6303 99.0999C26.9584 99.22 25.5356 97.8951 25.5353 96.2188V81.3638C25.5354 80.7879 25.7074 80.2477 26.0028 79.7929L9.54222 81.0225H9.53608C4.40851 81.386 1.332e-05 77.3177 0 72.1708V47.7202C0.000369179 42.5512 4.40493 38.4682 9.54846 38.8695H9.54755L25.6439 40.0708C25.5742 39.8222 25.5354 39.5609 25.5353 39.2911V23.6428C25.5353 21.3581 27.5792 19.6154 29.8351 19.9764L48.8878 23.0246C49.0973 23.0581 49.2977 23.1153 49.4884 23.1903V8.87123ZM94.1831 74.7039H94.1768L52.9185 77.7837V95.6878L100.005 85.8461V80.0928L99.9994 79.8018C99.8586 76.8093 97.2358 74.4657 94.1831 74.7039ZM24.8739 43.4532C25.1616 43.9033 25.3289 44.4367 25.329 45.0063V75.413C25.329 75.7655 25.2629 76.1031 25.1464 76.4166L49.4884 74.5998V45.2904L24.8739 43.4532ZM52.9185 42.1073L94.1768 45.1872L94.1831 45.1881L94.4757 45.2031C97.4932 45.2766 100.035 42.8343 100.035 39.7567V33.8024L52.9185 23.9533V42.1073Z" fill="white"/>
</g>
<defs>
<clipPath id="clip0_2_368">
<rect width="103.863" height="120.12" fill="white"/>
</clipPath>
</defs>
</svg>
