<svg id="fi_1864906" enable-background="new 0 0 510.999 510.999" height="512"
    viewBox="0 0 510.999 510.999" width="512" xmlns="http://www.w3.org/2000/svg">
    <path
        d="m443.468 118.401h-375.939l36.853 311.315c1.787 15.099 14.588 26.473 29.792 26.473h242.649c15.204 0 28.005-11.374 29.792-26.473z"
        fill="#98d72a"></path>
    <path d="m441.338 136.4 2.13-18h-375.939l2.131 18z" fill="#8bc727"></path>
    <path
        d="m456.329 118.401h-401.66c-8.284 0-15-6.716-15-15v-33.59c0-8.284 6.716-15 15-15h401.66c8.284 0 15 6.716 15 15v33.59c0 8.284-6.716 15-15 15z"
        fill="#ffe2cb"></path>
    <path
        d="m456.329 100.4h-401.66c-8.284 0-15-6.716-15-15v18c0 8.284 6.716 15 15 15h401.66c8.284 0 15-6.716 15-15v-18c0 8.285-6.716 15-15 15z"
        fill="#efc89d"></path>
    <path
        d="m313.322 310.569h-115.646c-11.181 0-20.245-9.064-20.245-20.245 0-11.181 9.064-20.245 20.245-20.245h115.647c11.181 0 20.245 9.064 20.245 20.245-.001 11.181-9.065 20.245-20.246 20.245z"
        fill="#ffe2cb"></path>
    <path
        d="m313.322 292.569h-115.646c-7.944 0-14.8-4.586-18.115-11.245-1.351 2.714-2.13 5.762-2.13 9 0 11.181 9.064 20.245 20.245 20.245h115.646c11.181 0 20.245-9.064 20.245-20.245 0-3.238-.779-6.286-2.13-9-3.315 6.659-10.171 11.245-18.115 11.245z"
        fill="#efc89d"></path>
    <path
        d="m504.333 86.585c-4.594-4.823-10.792-7.479-17.454-7.479h-8.05v-9.295c0-12.406-10.094-22.5-22.5-22.5h-304.68c-4.143 0-7.5 3.357-7.5 7.5s3.357 7.5 7.5 7.5h304.68c4.136 0 7.5 3.364 7.5 7.5v33.59c0 4.136-3.364 7.5-7.5 7.5h-84.127c-4.143 0-7.5 3.357-7.5 7.5s3.357 7.5 7.5 7.5h62.826l-14.113 119.218c-21.007 14.721-47.807 26.929-82.006 34.482-4.202-9.99-14.088-17.022-25.588-17.022h-115.645c-11.499 0-21.386 7.033-25.588 17.022-34.198-7.553-60.999-19.761-82.006-34.482l-14.112-119.218h266.232c4.143 0 7.5-3.357 7.5-7.5s-3.357-7.5-7.5-7.5h-287.533c-4.136 0-7.5-3.364-7.5-7.5v-33.59c0-4.136 3.364-7.5 7.5-7.5h66.98c4.143 0 7.5-3.357 7.5-7.5s-3.357-7.5-7.5-7.5h-66.98c-12.406 0-22.5 10.094-22.5 22.5v9.295h-8.05c-13.625 0-24.755 11.739-24.091 25.338 1.028 21.053 6.492 62.199 31.538 101.221 11.911 18.556 26.742 34.516 44.403 47.833l20.965 177.1c2.234 18.865 18.244 33.092 37.241 33.092h49.895c4.143 0 7.5-3.357 7.5-7.5s-3.357-7.5-7.5-7.5h-49.895c-11.399 0-21.005-8.536-22.345-19.855l-19.438-164.21c22.271 13.534 48.266 23.538 77.861 29.928 2.043 13.298 13.562 23.515 27.423 23.515h115.646c13.861 0 25.38-10.217 27.423-23.515 29.596-6.39 55.59-16.394 77.861-29.928l-19.439 164.208c-1.34 11.319-10.946 19.855-22.345 19.855h-162.753c-4.143 0-7.5 3.357-7.5 7.5s3.357 7.5 7.5 7.5h162.754c18.997 0 35.007-14.227 37.241-33.092l20.965-177.1c17.661-13.317 32.492-29.277 44.403-47.833 25.046-39.021 30.51-80.168 31.538-101.222.326-6.678-2.032-13.02-6.637-17.856zm-489.322 17.127c-.251-5.147 3.943-9.606 9.108-9.606h8.05v9.295c0 12.406 10.094 22.5 22.5 22.5h6.196l12.547 105.99c-47.551-42.69-56.974-98.956-58.401-128.179zm298.311 199.357h-115.646c-7.027 0-12.745-5.718-12.745-12.745s5.718-12.745 12.745-12.745h115.646c7.027 0 12.745 5.718 12.745 12.745s-5.717 12.745-12.745 12.745zm124.265-71.179 12.547-105.99h6.196c12.406 0 22.5-10.094 22.5-22.5v-9.295h8.05c5.166 0 9.36 4.459 9.108 9.606-1.428 29.224-10.851 85.49-58.401 128.179z"></path>
</svg>