<svg xmlns="http://www.w3.org/2000/svg" width="512" height="512" viewBox="0 0 512 512">
    <path fill="#0364B8" d="M194.926 199.913c24.422-43.228 70.84-72.366 123.847-72.366 66.085 0 121.387 45.51 136.816 106.935 48.304 1.927 86.91 41.566 86.91 90.256 0 49.882-40.437 90.319-90.319 90.319H142.486c-61.431 0-111.236-49.805-111.236-111.236 0-55.675 40.877-101.83 94.172-110.084 15.376-33.025 44.157-58.502 79.624-68.545-3.334 23.097-6.498 46.647-10.12 74.721z"/>
    <path fill="#0078D4" d="M318.773 127.547c-53.007 0-99.425 29.138-123.847 72.366-21.996 4.93-41.911 15.478-57.678 30.146 14.589-69.337 76.034-121.516 149.525-121.516 84.279 0 152.61 68.331 152.61 152.61 0 6.24-.375 12.392-1.109 18.437 16.872-16.327 27.398-39.238 27.398-64.597 0-49.882-40.437-90.319-90.319-90.319-20.287 0-39.003 6.702-54.087 18.016-7.334-9.182-15.901-17.337-25.461-24.145"/>
    <path fill="#1490DF" d="M194.926 199.913c3.622-28.074 6.786-51.624 10.12-74.721-35.467 10.043-64.248 35.52-79.624 68.545-53.295 8.254-94.172 54.409-94.172 110.084 0 61.431 49.805 111.236 111.236 111.236h309.694c49.882 0 90.319-40.437 90.319-90.319 0-48.69-38.606-88.329-86.91-90.256-15.429-61.425-70.731-106.935-136.816-106.935-53.007 0-99.425 29.138-123.847 72.366"/>
    <path fill="#28A8EA" d="M194.926 199.913c24.422-43.228 70.84-72.366 123.847-72.366 66.085 0 121.387 45.51 136.816 106.935-15.429-61.425-70.731-106.935-136.816-106.935-53.007 0-99.425 29.138-123.847 72.366"/>
</svg>