<svg xmlns="http://www.w3.org/2000/svg" width="512" height="512" viewBox="0 0 512 512">
    <path fill="#0078D4" d="M448 64h-32v-32c0-17.7-14.3-32-32-32s-32 14.3-32 32v32H160v-32c0-17.7-14.3-32-32-32S96 14.3 96 32v32H64c-35.3 0-64 28.7-64 64v320c0 35.3 28.7 64 64 64h384c35.3 0 64-28.7 64-64V128c0-35.3-28.7-64-64-64z"/>
    <path fill="#0364B8" d="M448 128H64c-17.7 0-32 14.3-32 32v48h448v-48c0-17.7-14.3-32-32-32z"/>
    <path fill="#FFFFFF" d="M96 256h64v48H96zm128 0h64v48h-64zm128 0h64v48h-64zM96 352h64v48H96zm128 0h64v48h-64zm128 0h64v48h-64z"/>
</svg>
