<?xml version="1.0" standalone="no"?>
<!DOCTYPE svg PUBLIC "-//W3C//DTD SVG 20010904//EN"
 "http://www.w3.org/TR/2001/REC-SVG-20010904/DTD/svg10.dtd">
<svg version="1.0" xmlns="http://www.w3.org/2000/svg"
 width="200.000000pt" height="200.000000pt" viewBox="0 0 200.000000 200.000000"
 preserveAspectRatio="xMidYMid meet">

<g transform="translate(0.000000,200.000000) scale(0.100000,-0.100000)"
fill="#000000" stroke="none">
<path d="M1055 1720 c-191 -38 -340 -173 -401 -360 -16 -49 -18 -109 -22 -573
l-3 -519 28 6 c15 4 69 20 118 35 l90 29 5 469 c5 462 5 469 28 518 46 99 123
154 229 163 123 10 219 -43 272 -149 70 -141 18 -303 -123 -377 -47 -24 -63
-27 -188 -30 l-138 -4 0 -119 0 -119 125 0 c149 0 206 11 303 57 164 77 274
243 288 433 25 330 -286 605 -611 540z"/>
</g>
</svg>
