<svg version="1.0" xmlns="http://www.w3.org/2000/svg"
 width="512.000000pt" height="512.000000pt" viewBox="0 0 512.000000 512.000000"
 preserveAspectRatio="xMidYMid meet">

<g transform="translate(0.000000,512.000000) scale(0.100000,-0.100000)"
fill="#005d33" stroke="none">
<path d="M2335 5109 c-767 -67 -1472 -486 -1900 -1129 -134 -201 -227 -389
-299 -605 -249 -745 -146 -1556 281 -2210 315 -482 788 -849 1328 -1029 666
-223 1385 -165 2005 160 890 468 1434 1437 1362 2427 -34 473 -169 870 -427
1257 -517 776 -1418 1209 -2350 1129z m301 -1108 c64 -39 64 -54 22 -621 -11
-150 -12 -156 -40 -184 -25 -24 -34 -28 -65 -23 -64 11 -75 32 -84 154 -38
523 -40 591 -26 620 16 30 43 57 67 66 33 12 96 6 126 -12z m-875 -305 c36
-25 479 -519 485 -540 15 -60 -54 -118 -113 -95 -15 6 -53 32 -83 58 -30 26
-143 121 -250 210 -107 90 -205 175 -217 190 -31 36 -31 108 -1 146 41 53 127
68 179 31z m1742 2 c51 -27 72 -119 39 -170 -22 -34 -525 -456 -559 -469 -33
-12 -69 -2 -93 28 -39 50 -29 74 87 201 59 64 159 173 221 242 132 145 167
177 196 183 27 6 85 -2 109 -15z m-1600 -1145 c53 -177 211 -669 217 -676 4
-4 32 61 63 145 30 84 90 249 132 366 l78 212 158 0 158 0 14 -27 c8 -16 70
-182 138 -370 68 -188 127 -337 130 -330 4 7 37 109 74 227 36 118 87 279 111
358 l45 142 225 0 c123 0 224 -3 224 -8 0 -4 -103 -315 -228 -692 l-229 -685
-200 -3 -200 -2 -11 27 c-6 16 -33 93 -61 173 -99 290 -169 496 -176 520 -9
27 3 57 -150 -385 -47 -137 -93 -269 -102 -293 l-16 -42 -201 2 -201 3 -227
685 c-125 377 -228 688 -228 693 0 4 101 7 225 7 l224 0 14 -47z"/>
</g>
</svg>
