<svg width="513" height="100" viewBox="0 0 513 100" fill="none" xmlns="http://www.w3.org/2000/svg">
<path d="M195.344 17.4015C190.635 17.4015 188.49 20.9197 188.49 24.1861C188.49 27.4525 190.635 30.9707 195.344 30.9707C200.052 30.9707 202.197 27.4525 202.197 24.1861C202.197 20.9197 200.052 17.4015 195.344 17.4015Z" fill="#060606"/>
<path d="M201.196 36.4243H189.489V82.1993H201.196V36.4243Z" fill="#060606"/>
<path d="M233.197 35.4175C228.763 35.4175 224.184 36.1502 220.658 41.3321L219.91 36.6081H209.073V82.1999H220.78V58.1677C220.78 51.1923 224.879 47.0254 231.739 47.0254C232.38 47.0254 232.976 47.0559 233.548 47.1246L233.861 47.1627V35.4328H233.441C233.365 35.4175 233.281 35.4175 233.205 35.4175H233.197Z" fill="#060606"/>
<path d="M313.528 36.5201H300.6L290.488 69.7105L280.888 36.7186L280.827 36.5201H270.631L261.06 69.7028L251.017 36.7186L250.956 36.5201H237.929L253.864 82.196L253.925 82.3868H267.296L272.027 68.8405L275.774 54.7828L279.537 68.8634L284.192 82.196L284.253 82.3868H297.624L313.406 36.8865L313.528 36.5201Z" fill="#060606"/>
<path d="M336.279 35.2353C321.794 35.2353 312.063 44.8208 312.063 59.0844C312.063 74.0731 321.657 83.3914 337.096 83.3914C344.773 83.3914 352.275 80.5601 356.663 75.9963L356.854 75.7979L349.329 68.3722L349.131 68.5783C346.551 71.2494 341.095 72.6918 337.271 72.6918C330.051 72.6918 325.06 69.2422 324.167 63.6558H359.266L359.289 63.404C360.143 54.2307 358.258 46.8126 353.839 41.9589C349.833 37.563 343.758 35.243 336.264 35.243L336.279 35.2353ZM348.016 53.872H324.412C326.037 48.6442 330.471 45.6602 336.645 45.6602C342.819 45.6602 347.223 48.6442 348.016 53.872Z" fill="#060606"/>
<path d="M400.842 42.2021C398.072 38.1115 392.646 35.5091 386.731 35.5091C379.771 35.4709 373.658 37.7375 369.453 41.9045C365.21 46.1172 362.974 52.1462 362.974 59.3506C362.974 66.5549 365.233 73.0876 369.514 77.3309C373.62 81.4062 379.397 83.5584 386.243 83.5584C386.319 83.5584 386.395 83.5584 386.464 83.5584C391.654 83.4668 398.072 80.9483 400.873 76.2853L401.361 82.1846H412.404V36.5928H401.17L400.842 42.1945V42.2021ZM400.606 59.404C400.606 65.8451 396.576 72.7824 387.731 72.7824C380.046 72.7824 374.673 67.2646 374.673 59.3582C374.673 51.4517 379.924 46.0256 387.731 46.0256C396.576 46.0256 400.606 52.9628 400.606 59.404Z" fill="#060606"/>
<path d="M467.697 36.5201H454.937L448.649 51.7759L442.062 69.8707L435.377 51.5775L429.089 36.5201H416.336L435.774 82.2189L435.85 82.3868H448.275L467.529 36.9094L467.697 36.5201Z" fill="#060606"/>
<path d="M506.923 41.9512C502.916 37.5554 496.842 35.2353 489.347 35.2353C474.862 35.2353 465.132 44.8208 465.132 59.0844C465.132 74.0731 474.725 83.3914 490.164 83.3914C497.841 83.3914 505.343 80.5601 509.732 75.9963L509.922 75.7979L502.398 68.3722L502.199 68.5783C499.62 71.2494 494.163 72.6918 490.339 72.6918C483.12 72.6918 478.129 69.2422 477.236 63.6558H512.334L512.357 63.404C513.219 54.2307 511.334 46.8126 506.908 41.9589L506.923 41.9512ZM477.488 53.872C479.113 48.6442 483.547 45.6602 489.721 45.6602C495.895 45.6602 500.299 48.6442 501.092 53.872H477.488Z" fill="#060606"/>
<path d="M151.5 18.1686C147.425 18.1686 143.716 20.5726 142.045 24.2892L116.066 82.1987H129.643L135.085 70.2321H167.909L173.258 82.1987H186.927L160.956 24.2892C159.292 20.5726 155.576 18.1686 151.5 18.1686ZM162.856 58.5175H140.137L151.5 32.478L162.864 58.5175H162.856Z" fill="#060606"/>
<path d="M62.2222 89.4659C55.2849 85.6118 46.1192 79.911 41.8226 74.6909L41.4563 74.2558C40.5786 73.2027 39.6704 72.1648 38.7623 71.1803C35.8012 67.9597 32.634 65.0596 29.3524 62.5564C28.0244 61.5414 26.6584 60.5722 25.2923 59.6869C24.5902 59.229 23.9109 58.8093 23.2775 58.4277C21.6825 57.4737 19.744 57.2142 17.9582 57.7179C16.264 58.1987 14.9055 59.313 14.1195 60.8469C12.5931 63.8309 13.6463 67.517 16.5158 69.2418C18.8206 70.6232 21.0796 72.2411 23.2241 74.0498C23.4988 74.2787 23.6133 74.6527 23.5141 74.9885C22.728 77.858 21.942 82.5668 21.6443 84.4594C21.0033 88.4661 22.9722 92.4041 26.5363 94.2586L26.666 94.3273C28.2229 95.1286 30.0545 95.0904 31.5656 94.2204C33.069 93.358 34.023 91.8088 34.1146 90.0688C34.1527 89.3209 34.1985 88.5729 34.2519 87.8785C34.2824 87.5121 34.5038 87.2145 34.8472 87.0924C34.954 87.0542 35.0685 87.0313 35.1754 87.0313C35.4196 87.0313 35.6485 87.1306 35.8317 87.3137C38.8233 90.3817 42.0515 93.152 45.4171 95.556C48.653 97.8684 52.4841 99.0894 56.4984 99.0894C57.956 99.0894 59.4213 98.9216 60.8484 98.5934L61.0087 98.5552C63.0082 98.0897 64.4277 96.5252 64.7177 94.4799C65.0077 92.4346 64.0233 90.4656 62.2298 89.4659H62.2222Z" fill="#1692E5"/>
<path d="M98.8712 40.2642L98.8559 40.1803C98.5201 38.4631 97.1769 37.1505 95.4216 36.8376C93.6892 36.5323 92.0484 37.2573 91.1631 38.7379L91.1097 38.8218C87.8357 44.4235 83.2109 49.6131 77.365 54.2608C75.831 55.4819 74.3276 56.7716 72.8928 58.0995C71.7938 59.1222 70.1377 59.2977 68.8709 58.5269C67.6193 57.7714 66.3677 56.9395 65.1542 56.0542C62.5213 54.1463 59.9876 51.9331 57.6141 49.4833C56.3778 48.2088 55.1948 46.8809 54.0806 45.5225C52.5848 43.6985 50.9898 41.9203 49.3337 40.2337C45.8231 36.6544 39.0614 31.732 37.0695 30.3125C36.8177 30.1369 36.665 29.8698 36.6192 29.5646C36.5811 29.2593 36.665 28.9693 36.8635 28.7327C38.1303 27.2216 39.3285 25.6571 40.4198 24.0774C41.5799 22.4136 41.9614 20.376 41.473 18.4909C40.9998 16.6517 39.7711 15.1635 38.0235 14.3088C35.0853 12.8587 31.5976 13.7593 29.7354 16.4304C28.0717 18.8191 26.1104 21.162 23.9201 23.3905C23.714 23.5966 23.4011 23.6729 23.1187 23.5737C20.8903 22.8486 18.6008 22.2534 16.3189 21.8107C16.151 21.7802 15.9068 21.7344 15.6015 21.6963C11.0759 21.0247 6.69528 23.2837 4.68051 27.3132L4.61182 27.4429C3.96313 28.748 4.01655 30.2819 4.75682 31.5564C5.50473 32.8462 6.84791 33.6704 8.32847 33.7544C9.02295 33.7925 9.70981 33.8383 10.3509 33.8841C10.6485 33.907 10.8927 34.0825 10.9996 34.3649C11.1064 34.6549 11.0454 34.9602 10.8317 35.1739C8.10715 37.9747 5.6421 40.9816 3.49759 44.103C0.444906 48.5523 -0.684589 54.2074 0.406747 59.6183L0.42201 59.7022C0.841754 61.7704 2.47494 63.2509 4.5813 63.4799C6.6037 63.6936 8.43531 62.6404 9.23664 60.8012L9.28243 60.6867C12.6709 52.5818 18.2802 45.3775 25.9577 39.2797C26.3241 38.9974 26.8049 38.9516 27.1941 39.1653C31.2084 41.3785 35.0547 44.2556 38.6111 47.7204C39.0461 48.1402 39.0538 48.8423 38.6416 49.2773C36.8711 51.1394 35.2074 53.0931 33.6963 55.085C32.5134 56.6419 32.7347 58.8627 34.1924 60.1448L36.7719 62.4115L36.7413 62.442C37.1458 62.8007 37.5503 63.1594 37.9548 63.5181L38.5043 63.9378C39.2827 64.6247 40.2748 64.9452 41.3051 64.8383C42.3278 64.7315 43.2741 64.1973 43.8999 63.3731C44.9912 61.923 46.1894 60.5035 47.441 59.1451C47.6471 58.9161 47.9371 58.794 48.2423 58.7864C48.5629 58.7864 48.8147 58.8932 49.0131 59.0917C52.4245 62.4573 56.1106 65.4489 59.9799 67.975C61.4986 68.9671 61.9413 70.9437 60.9949 72.4853C60.1554 73.859 59.3541 75.2785 58.6215 76.7057C57.7744 78.3617 57.6294 80.3231 58.2399 82.0784C58.8199 83.765 60.0104 85.0929 61.5902 85.8256C62.4755 86.2377 63.4142 86.4437 64.3758 86.4437C66.8256 86.4437 69.0388 85.0929 70.153 82.9102C71.1604 80.9336 72.3357 78.9799 73.6331 77.1178C74.3886 76.0264 75.7776 75.5228 77.0979 75.8585C79.8834 76.5759 83.6306 77.3162 86.2864 77.8199C88.9652 78.3236 91.621 77.0415 92.9031 74.6451L93.0329 74.4085C93.9945 72.5922 94.0021 70.4248 93.0481 68.6008C92.0865 66.7615 90.2778 65.5252 88.2096 65.281C87.6983 65.2199 87.2099 65.1589 86.752 65.0978C86.6528 65.0826 86.5688 65.0673 86.5001 65.052L85.5309 64.8307L86.2254 64.121C86.2788 64.0675 86.3475 63.9989 86.4314 63.9378C89.2933 61.5796 91.9416 59.0688 94.2998 56.474C98.2682 52.1086 99.9777 46.0491 98.8635 40.2642H98.8712Z" fill="#1692E5"/>
<path d="M39.0976 9.75189C45.3175 13.438 53.5445 18.826 57.4214 23.55C57.8793 24.0995 58.3372 24.6414 58.7951 25.168C59.6346 26.1372 59.7338 27.5185 59.0317 28.6022C57.7725 30.5407 56.3301 32.4562 54.7427 34.2879C53.5826 35.6234 53.5369 37.5695 54.6282 38.9203L54.674 38.9737C54.8037 39.1416 54.9411 39.3095 55.0708 39.4774C56.2385 40.958 57.4825 42.3851 58.7646 43.7207C59.4438 44.4304 60.3672 44.8273 61.3517 44.8273L61.4433 45.3844L61.428 44.8273C62.4507 44.8044 63.4276 44.3541 64.1068 43.5757C65.6637 41.8127 67.1213 39.9659 68.4416 38.0961C69.3498 36.814 71.0898 36.5239 72.4025 37.4321C73.7533 38.3632 75.1422 39.2485 76.5312 40.0651C78.1568 41.019 80.1181 41.1946 81.8963 40.5382C83.6974 39.8743 85.094 38.4548 85.7198 36.6384C86.6967 33.8223 85.4451 30.5865 82.7434 28.9533C80.9118 27.8467 79.1031 26.5951 77.3783 25.2443C76.4778 24.5345 76.0962 23.3669 76.4167 22.2603C77.2104 19.4823 77.9354 15.8802 78.401 13.3464C78.8818 10.7288 77.7065 8.05765 75.4704 6.70684L75.2109 6.5542C73.3412 5.43997 71.0516 5.35602 69.0903 6.33288C67.1137 7.31738 65.7934 9.21004 65.5568 11.3927L65.5415 11.5301C65.511 11.7972 65.3431 12.0032 65.0913 12.0872C64.8394 12.1711 64.5799 12.1025 64.3968 11.9193C61.6036 8.9353 58.6348 6.23367 55.5593 3.87547C51.4229 0.708309 46.1417 -0.611978 41.0666 0.265669L40.8529 0.303828C38.7161 0.677782 37.0752 2.30334 36.686 4.44785C36.2968 6.56947 37.2431 8.65292 39.1053 9.75189H39.0976Z" fill="#1692E5"/>
</svg>
