<svg width="460" height="89" viewBox="0 0 460 89" fill="none" xmlns="http://www.w3.org/2000/svg">
<path d="M55.5844 79.8556C49.441 76.4456 41.3272 71.3969 37.5191 66.7728L37.194 66.388C36.4178 65.4525 35.615 64.537 34.8057 63.6613C32.1851 60.8085 29.3788 58.241 26.4729 56.0252C25.2987 55.1295 24.0846 54.267 22.8771 53.4842C22.2535 53.0795 21.6564 52.708 21.0925 52.3696C19.6794 51.5271 17.9611 51.2949 16.3821 51.7394C14.8828 52.164 13.682 53.1525 12.9854 54.5125C11.632 57.153 12.5674 60.4171 15.1084 61.943C17.1517 63.1637 19.1487 64.5967 21.0461 66.2022C21.2915 66.4079 21.3911 66.733 21.3048 67.0315C20.6082 69.5725 19.9116 73.7454 19.6462 75.4173C19.0757 78.9666 20.8205 82.4497 23.9784 84.095L24.0912 84.1547C25.4712 84.8646 27.0899 84.8314 28.4301 84.0618C29.7636 83.2989 30.6061 81.9256 30.6857 80.3864C30.7189 79.723 30.7587 79.0595 30.8052 78.4492C30.8317 78.1241 31.0307 77.8587 31.3293 77.7526C31.4222 77.7194 31.5283 77.6995 31.6212 77.6995C31.8401 77.6995 32.0391 77.7857 32.205 77.9516C34.8521 80.665 37.7115 83.1197 40.6903 85.2494C43.5563 87.2994 46.9465 88.3808 50.5025 88.3808C51.7962 88.3808 53.0899 88.2348 54.357 87.9429L54.4963 87.9097C56.2677 87.4984 57.5216 86.1118 57.7803 84.3007C58.0391 82.4895 57.1633 80.7446 55.5777 79.8623H55.5711L55.5844 79.8556Z" fill="#080E0E"/>
<path d="M88.0391 36.2881L88.0259 36.2152C87.7273 34.6959 86.5398 33.5349 84.9873 33.2563C83.4548 32.9842 82.0019 33.6278 81.219 34.9414L81.1726 35.0144C78.2734 39.9768 74.18 44.5678 68.9986 48.6877C67.6386 49.7691 66.3117 50.9102 65.0379 52.0845C64.0627 52.9867 62.5965 53.146 61.4753 52.4626C60.3674 51.7926 59.2594 51.0562 58.1847 50.2733C55.856 48.5816 53.607 46.6244 51.5105 44.455C50.4158 43.3272 49.3676 42.1529 48.3791 40.9455C47.0522 39.3333 45.6391 37.7543 44.1729 36.2616C41.0614 33.0904 35.0773 28.7317 33.3126 27.4778C33.087 27.3252 32.9543 27.0864 32.9145 26.8143C32.8813 26.5423 32.9543 26.2902 33.1334 26.0779C34.2546 24.7378 35.3161 23.3512 36.2847 21.958C37.3131 20.4852 37.6514 18.6806 37.2202 17.0088C36.8022 15.3834 35.7142 14.0632 34.1684 13.3068C31.5677 12.0198 28.4761 12.8225 26.8308 15.1844C25.358 17.3007 23.6198 19.3773 21.6826 21.3476C21.4968 21.5334 21.2248 21.5997 20.9727 21.5069C19.0023 20.8633 16.9722 20.3392 14.9487 19.9478C14.8028 19.9213 14.5838 19.8815 14.3118 19.8483C10.3047 19.2512 6.42363 21.2548 4.63899 24.824L4.57929 24.9368C4.0021 26.0912 4.05518 27.4512 4.70534 28.5791C5.36877 29.7202 6.55632 30.4499 7.86992 30.5229C8.48691 30.5561 9.09063 30.5959 9.66118 30.6357C9.92656 30.6556 10.1389 30.8082 10.2384 31.0603C10.3312 31.319 10.2782 31.5844 10.0924 31.7768C7.67752 34.258 5.49483 36.9184 3.59741 39.6849C0.897237 43.6257 -0.104549 48.6346 0.857428 53.4246L0.8707 53.4976C1.24222 55.3287 2.68851 56.6422 4.55275 56.8413C6.34402 57.0337 7.96279 56.0983 8.67266 54.4662L8.71248 54.3667C11.7112 47.1883 16.6803 40.8128 23.4805 35.4124C23.8056 35.1603 24.2302 35.1205 24.5751 35.3129C28.1311 37.27 31.5346 39.8176 34.6859 42.8893C35.0707 43.2608 35.0773 43.8845 34.7124 44.2693C33.1467 45.9212 31.6739 47.6461 30.3337 49.4109C29.2855 50.7908 29.4846 52.7546 30.7716 53.889L33.0538 55.8992L33.0273 55.9258C33.3855 56.2442 33.7438 56.5627 34.102 56.8811L34.5864 57.2526C35.2763 57.863 36.1521 58.1416 37.0676 58.0487C37.9699 57.9558 38.8124 57.4782 39.3631 56.7484C40.3317 55.4614 41.3932 54.2075 42.5011 53.0067C42.6869 52.801 42.939 52.6949 43.211 52.6882C43.4963 52.6882 43.7152 52.7811 43.8943 52.9602C46.9129 55.939 50.177 58.5927 53.607 60.8285C54.9537 61.7042 55.3452 63.4557 54.5026 64.8224C53.7596 66.0365 53.0497 67.297 52.3995 68.5575C51.6498 70.0237 51.5238 71.7619 52.0612 73.3143C52.572 74.807 53.6269 75.9813 55.0267 76.6315C55.8096 76.9964 56.6389 77.1821 57.4947 77.1821C59.6641 77.1821 61.6212 75.9879 62.6097 74.0507C63.4987 72.2993 64.5403 70.5677 65.6881 68.9224C66.3582 67.9538 67.5855 67.5093 68.7531 67.8078C71.2211 68.4447 74.5383 69.1015 76.8868 69.546C79.2619 69.9905 81.6105 68.8561 82.7449 66.7331L82.8577 66.5208C83.7069 64.9153 83.7135 62.9913 82.871 61.3792C82.0218 59.7538 80.4163 58.6525 78.5852 58.4402C78.1341 58.3871 77.7028 58.334 77.2915 58.281C77.2053 58.2677 77.1323 58.2544 77.066 58.2411L76.2101 58.0421L76.8271 57.4119C76.8735 57.3654 76.9333 57.3057 77.0129 57.2526C79.5472 55.1628 81.8891 52.9403 83.9789 50.6448C87.4951 46.777 89.0077 41.4165 88.0192 36.2881H88.0259H88.0391Z" fill="#080E0E"/>
<path d="M35.1029 9.27312C40.6094 12.5372 47.8939 17.3073 51.3304 21.4936C51.7351 21.9779 52.1398 22.4622 52.5445 22.9266C53.2876 23.7824 53.3738 25.0097 52.7568 25.9651C51.6422 27.6834 50.3618 29.3752 48.962 31.0006C47.9337 32.1815 47.8938 33.9064 48.8625 35.1006L48.9023 35.147C49.015 35.293 49.1411 35.4456 49.2539 35.5915C50.2888 36.9051 51.3901 38.1656 52.5246 39.3465C53.1283 39.9768 53.9444 40.3284 54.8135 40.3284L54.8931 40.8194L54.8798 40.3284C55.7821 40.3085 56.6512 39.9104 57.2549 39.2205C58.6348 37.6614 59.9219 36.0227 61.0962 34.3708C61.8989 33.2363 63.4381 32.9776 64.6057 33.7803C65.7999 34.603 67.0339 35.3858 68.2612 36.109C69.7009 36.9515 71.4391 37.1107 73.0114 36.5269C74.6036 35.9365 75.8443 34.6826 76.3949 33.0705C77.2574 30.576 76.1495 27.7099 73.7611 26.2636C72.1423 25.2818 70.5368 24.1738 69.0109 22.9796C68.2148 22.3494 67.8764 21.3144 68.1617 20.3392C68.865 17.8779 69.5085 14.6867 69.9198 12.4443C70.3444 10.1289 69.3028 7.7605 67.3258 6.56632L67.0936 6.43363C65.435 5.44511 63.4115 5.37214 61.6733 6.23461C59.9219 7.1037 58.7542 8.78219 58.5419 10.7128L58.5287 10.8322C58.5021 11.071 58.3562 11.2501 58.1306 11.3231C57.9051 11.3961 57.6795 11.3364 57.5136 11.1772C55.039 8.53673 52.4118 6.14172 49.6851 4.05191C46.023 1.24559 41.3458 0.0779402 36.8543 0.854157L36.6619 0.88734C34.7711 1.21906 33.3182 2.65871 32.9732 4.55612C32.6283 6.43364 33.4642 8.27797 35.1161 9.25322H35.1095L35.1029 9.27312Z" fill="#080E0E"/>
<path d="M455.501 33.1036C451.732 28.2606 445.927 25.6997 438.709 25.6997C431.922 25.6997 426.217 27.9886 422.203 32.3208C418.249 36.5866 416.159 42.5907 416.159 49.6762C416.159 56.7616 418.276 62.8453 422.289 67.1112C426.316 71.3903 432.029 73.6593 438.796 73.6593C449.357 73.6593 457.186 68.0267 459.236 58.9642L459.335 58.5064H449.231L449.145 58.7652C448.256 61.7042 444.999 65.1341 438.802 65.1341C435.2 65.1341 432.267 63.993 430.118 61.7506C428.088 59.621 426.827 56.4962 426.482 52.7014H459.641L459.687 52.3896C460.695 44.5876 459.256 37.9201 455.507 33.1103L455.501 33.1036ZM438.364 34.0457C441.88 34.0457 444.8 35.1735 446.81 37.3098C448.641 39.2736 449.629 41.9472 449.663 45.0587H426.761C427.225 41.7017 428.519 38.9352 430.483 37.0245C432.5 35.074 435.226 34.039 438.364 34.039V34.0457Z" fill="#080E0E"/>
<path d="M416.033 27.02L415.861 27.5242L400.124 72.3258H387.399L387.313 72.0803L371.49 27.02H382.357L382.444 27.2721L393.762 61.0607L405.173 27.02H416.033Z" fill="#080E0E"/>
<path d="M369.918 63.449V44.0171C369.918 37.887 368.193 33.2164 364.783 30.1248C361.546 27.1858 356.815 25.6931 350.705 25.6931C344.907 25.6931 340.263 27.0531 336.919 29.7334C333.562 32.4136 331.558 36.3743 330.981 41.5026L330.928 41.914H340.873L340.919 41.5889C341.211 39.2337 342.167 37.4093 343.765 36.162C345.404 34.8683 347.72 34.2182 350.625 34.2182C353.352 34.2182 355.594 34.802 357.114 35.9099C358.786 37.124 359.635 38.9617 359.635 41.3567C359.635 42.5973 359.383 43.4399 358.898 43.9706C358.494 44.382 357.923 44.6341 357.074 44.7535L345.829 45.5894C340.707 45.9344 336.7 47.3608 333.947 49.789C331.22 52.1906 329.847 55.4547 329.847 59.4817C329.847 63.5087 331.313 67.1311 334.093 69.672C336.945 72.266 340.986 73.646 345.769 73.646C352.835 73.646 358.275 70.6804 361.161 65.2867C361.419 67.3566 362.129 69.0019 363.257 70.1696C364.637 71.5893 366.634 72.3191 369.208 72.3191H373.56V63.4424H369.938L369.918 63.449ZM347.434 65.2204C345.099 65.2204 343.288 64.6896 342.041 63.648C340.76 62.5865 340.11 61.0076 340.11 58.9576C340.11 57.08 340.661 55.6802 341.802 54.6585C343.029 53.5639 344.993 52.9004 347.64 52.6948L347.779 52.6815L359.794 51.8323V53.126C359.794 56.6422 358.58 59.6608 356.298 61.8767C354.062 64.0395 350.917 65.2204 347.428 65.2204H347.434Z" fill="#080E0E"/>
<path d="M321.507 33.1036C317.739 28.2606 311.934 25.6997 304.716 25.6997C297.929 25.6997 292.223 27.9886 288.216 32.3208C284.256 36.5866 282.159 42.5907 282.159 49.6762C282.159 56.7616 284.276 62.8453 288.289 67.1112C292.316 71.3903 298.028 73.6593 304.796 73.6593C315.357 73.6593 323.186 68.0267 325.236 58.9642L325.335 58.5064H315.231L315.158 58.7652C314.256 61.7042 311.012 65.1341 304.802 65.1341C301.2 65.1341 298.267 63.993 296.118 61.7506C294.088 59.621 292.827 56.4962 292.482 52.7014H325.641L325.687 52.3896C326.709 44.5876 325.262 37.9201 321.507 33.1103V33.1036ZM292.761 45.0653C293.225 41.7083 294.519 38.9418 296.483 37.0311C298.5 35.0806 301.226 34.0457 304.364 34.0457C307.88 34.0457 310.8 35.1735 312.81 37.3098C314.647 39.2736 315.629 41.9472 315.663 45.0587H292.761V45.0653Z" fill="#080E0E"/>
<path d="M281.218 27.02L281.066 27.4976L267.551 72.3258H256.738L256.665 72.0604L248.524 42.2922L240.231 72.3258H229.504L229.431 72.067L215.837 27.02H226.531L226.604 27.2919L234.911 58.606L243.648 27.02H253.407L253.48 27.2919L262.058 58.606L270.524 27.02H281.218Z" fill="#080E0E"/>
<path d="M212.009 27.02V35.8967H197.333V72.3258H187.13V37.2899C187.13 33.9926 188.032 31.4318 189.797 29.6604C191.555 27.9156 194.116 27.02 197.393 27.02H212.002H212.009Z" fill="#080E0E"/>
<path d="M181.41 13.6915C181.41 17.1348 178.763 19.6293 175.114 19.6293C171.465 19.6293 168.818 17.1348 168.818 13.6915C168.818 10.2483 171.585 7.6543 175.114 7.6543C178.644 7.6543 181.41 10.3014 181.41 13.6915Z" fill="#080E0E"/>
<path d="M180.17 27.02H169.967V72.3258H180.17V27.02Z" fill="#080E0E"/>
<path d="M143.204 15.1578C141.903 11.834 138.752 9.69769 135.183 9.69769C131.613 9.69769 128.475 11.834 127.175 15.1578L104.718 72.3257H116.215L122.763 55.3485H147.629L154.077 72.0869L154.177 72.3257H165.674L143.217 15.1578H143.204ZM125.954 46.0405L135.136 22.0442L144.331 46.0405H125.954Z" fill="#080E0E"/>
</svg>
