<svg width="143" height="143" viewBox="0 0 143 143" fill="none" xmlns="http://www.w3.org/2000/svg">
<path d="M89.3854 128.872C79.4165 123.339 66.2502 115.146 60.0707 107.642L59.5432 107.018C58.2836 105.5 56.981 104.014 55.6676 102.593C51.4152 97.9641 46.8614 93.7978 42.146 90.2021C40.2405 88.7487 38.2704 87.3492 36.3111 86.0789C35.2991 85.4222 34.3302 84.8193 33.4151 84.2703C31.1221 82.903 28.3338 82.5263 25.7716 83.2476C23.3385 83.9366 21.39 85.5406 20.2596 87.7476C18.0634 92.0323 19.5814 97.3289 23.7046 99.805C27.0204 101.786 30.2608 104.111 33.3398 106.717C33.7381 107.05 33.8996 107.578 33.7596 108.062C32.6292 112.185 31.4989 118.957 31.0682 121.67C30.1424 127.429 32.9737 133.081 38.0982 135.751L38.2812 135.848C40.5204 137 43.1472 136.946 45.3219 135.697C47.4858 134.459 48.853 132.231 48.9822 129.733C49.036 128.657 49.1006 127.58 49.176 126.59C49.219 126.062 49.542 125.632 50.0264 125.459C50.1772 125.406 50.3494 125.373 50.5001 125.373C50.8554 125.373 51.1784 125.513 51.4475 125.782C55.743 130.185 60.3829 134.169 65.2167 137.625C69.8674 140.951 75.3686 142.706 81.139 142.706C83.2383 142.706 85.3376 142.469 87.3938 141.995L87.6199 141.942C90.4943 141.274 92.529 139.024 92.9488 136.085C93.3687 133.146 91.9476 130.315 89.3747 128.883H89.3639L89.3854 128.872Z" fill="#060D0D"/>
<path d="M142.051 58.1747L142.029 58.0563C141.545 55.591 139.618 53.7069 137.098 53.2548C134.612 52.8134 132.254 53.8577 130.984 55.9893L130.908 56.1077C126.204 64.1604 119.561 71.6101 111.153 78.2956C108.946 80.0504 106.793 81.902 104.726 83.8075C103.144 85.2717 100.765 85.53 98.9452 84.4212C97.1474 83.3339 95.3495 82.1389 93.6055 80.8686C89.8268 78.1233 86.1772 74.9475 82.7753 71.4271C80.9989 69.597 79.298 67.6915 77.6939 65.7321C75.5408 63.1161 73.2477 60.5539 70.8685 58.1316C65.8195 52.9857 56.1089 45.9127 53.2453 43.878C52.8792 43.6304 52.6639 43.2428 52.5993 42.8014C52.5455 42.3601 52.6639 41.9509 52.9546 41.6064C54.774 39.4318 56.4965 37.1818 58.0683 34.921C59.7369 32.5311 60.286 29.6028 59.5862 26.8899C58.908 24.2523 57.1424 22.11 54.634 20.8827C50.4139 18.7942 45.3972 20.0968 42.7273 23.9293C40.3373 27.3636 37.5167 30.7332 34.3732 33.9306C34.0718 34.232 33.6304 34.3397 33.2213 34.1889C30.0239 33.1447 26.7296 32.2942 23.4461 31.659C23.2093 31.616 22.854 31.5514 22.4126 31.4975C15.9102 30.5286 9.61233 33.7798 6.71639 39.5717L6.6195 39.7548C5.68289 41.628 5.76902 43.8349 6.82405 45.6651C7.90061 47.5167 9.82765 48.701 11.9592 48.8194C12.9604 48.8732 13.9401 48.9378 14.8659 49.0024C15.2966 49.0347 15.6411 49.2823 15.8025 49.6914C15.9533 50.1112 15.8671 50.5419 15.5657 50.8541C11.647 54.8804 8.10515 59.1974 5.0262 63.6867C0.644601 70.0814 -0.981008 78.2095 0.580002 85.9822L0.601538 86.1006C1.20441 89.0719 3.55131 91.2035 6.57644 91.5264C9.48315 91.8386 12.1099 90.3208 13.2619 87.6724L13.3265 87.5109C18.1925 75.8625 26.2559 65.5168 37.2907 56.7536C37.8182 56.3445 38.5072 56.28 39.067 56.5922C44.8373 59.768 50.3601 63.902 55.4738 68.8864C56.0982 69.4893 56.1089 70.5013 55.5168 71.1257C52.9761 73.8063 50.5862 76.6054 48.4115 79.469C46.7106 81.7083 47.0335 84.8949 49.1221 86.7358L52.8254 89.9977L52.7824 90.0409C53.3637 90.5576 53.945 91.0744 54.5264 91.5911L55.3123 92.194C56.4319 93.1844 57.8529 93.6365 59.3386 93.4858C60.8027 93.3351 62.17 92.56 63.0635 91.3758C64.6353 89.2873 66.3578 87.2525 68.1556 85.304C68.457 84.9702 68.8661 84.798 69.3075 84.7872C69.7705 84.7872 70.1257 84.9379 70.4164 85.2286C75.3147 90.0624 80.6114 94.3686 86.1772 97.9966C88.3626 99.4176 88.9978 102.26 87.6306 104.477C86.4248 106.448 85.2729 108.493 84.2179 110.539C83.0014 112.918 82.7968 115.738 83.6688 118.257C84.4978 120.68 86.2095 122.585 88.481 123.64C89.7514 124.232 91.0971 124.534 92.4859 124.534C96.0062 124.534 99.182 122.596 100.786 119.452C102.229 116.61 103.919 113.8 105.781 111.131C106.869 109.559 108.86 108.838 110.755 109.322C114.76 110.355 120.143 111.421 123.954 112.143C127.808 112.864 131.619 111.023 133.46 107.578L133.643 107.233C135.021 104.628 135.031 101.506 133.664 98.8901C132.286 96.2526 129.681 94.4655 126.71 94.121C125.978 94.0349 125.278 93.9488 124.61 93.8626C124.47 93.8411 124.352 93.8196 124.244 93.798L122.856 93.4751L123.857 92.4523C123.932 92.377 124.029 92.2801 124.158 92.194C128.271 88.8028 132.071 85.1963 135.462 81.4714C141.168 75.1951 143.622 66.4965 142.018 58.1747H142.029H142.051Z" fill="#060D0D"/>
<path d="M56.1506 14.3371C65.0861 19.6338 76.9067 27.3743 82.4833 34.1674C83.14 34.9532 83.7967 35.7391 84.4534 36.4927C85.6591 37.8815 85.7991 39.8731 84.7979 41.4233C82.9892 44.2116 80.9115 46.9569 78.6399 49.5945C76.9713 51.5107 76.9067 54.3098 78.4785 56.2476L78.5431 56.323C78.7261 56.5598 78.9306 56.8074 79.1136 57.0442C80.7931 59.1758 82.5801 61.2213 84.4211 63.1375C85.4007 64.1603 86.7249 64.7309 88.1352 64.7309L88.2644 65.5275L88.2429 64.7309C89.707 64.6986 91.1173 64.0526 92.0969 62.933C94.3362 60.4031 96.4247 57.744 98.3302 55.0633C99.6329 53.2224 102.13 52.8026 104.025 54.1052C105.963 55.4402 107.965 56.7105 109.957 57.8839C112.293 59.2511 115.114 59.5095 117.665 58.5621C120.249 57.604 122.262 55.5694 123.156 52.9533C124.555 48.9055 122.757 44.2547 118.882 41.9078C116.255 40.3145 113.65 38.5166 111.174 36.5788C109.882 35.5561 109.333 33.8767 109.796 32.2941C110.937 28.3001 111.981 23.1218 112.648 19.4831C113.337 15.7259 111.647 11.8826 108.439 9.94477L108.062 9.72944C105.371 8.12537 102.087 8.00696 99.2668 9.40649C96.4247 10.8168 94.53 13.5405 94.1855 16.6733L94.1639 16.867C94.1209 17.2546 93.884 17.5453 93.518 17.6637C93.152 17.7821 92.7859 17.6852 92.5168 17.4269C88.5012 13.1422 84.238 9.25576 79.8134 5.8646C73.8708 1.31075 66.2811 -0.583999 58.9928 0.675575L58.6805 0.729423C55.6124 1.2677 53.2547 3.60383 52.6949 6.68279C52.1351 9.72946 53.4915 12.7223 56.1722 14.3048H56.1614L56.1506 14.3371Z" fill="#060D0D"/>
</svg>
