<?xml version="1.0" encoding="UTF-8"?>
<svg id="Layer_2" data-name="Layer 2" xmlns="http://www.w3.org/2000/svg" xmlns:xlink="http://www.w3.org/1999/xlink" viewBox="0 0 661.11 129.83">
  <defs>
    <style>
      .cls-1 {
        fill: url(#linear-gradient);
      }

      .cls-1, .cls-2, .cls-3, .cls-4 {
        stroke-width: 0px;
      }

      .cls-2 {
        fill: url(#linear-gradient-2);
      }

      .cls-3 {
        fill: url(#linear-gradient-3);
      }

      .cls-4 {
        fill: #ffffff;
      }
    </style>
    <linearGradient id="linear-gradient" x1="33.12" y1="114.72" x2="117.92" y2="58.45" gradientUnits="userSpaceOnUse">
      <stop offset="0" stop-color="#06f"/>
      <stop offset="1" stop-color="#00c6c3"/>
    </linearGradient>
    <linearGradient id="linear-gradient-2" x1="20.24" y1="95.31" x2="105.04" y2="39.03" xlink:href="#linear-gradient"/>
    <linearGradient id="linear-gradient-3" x1="6.95" y1="75.28" x2="91.75" y2="19.01" xlink:href="#linear-gradient"/>
  </defs>
  <g id="Layer_1-2" data-name="Layer 1">
    <g>
      <g>
        <path class="cls-4" d="M245.43,17.6c-6.17,0-8.98,4.61-8.98,8.89s2.81,8.89,8.98,8.89,8.98-4.61,8.98-8.89-2.81-8.89-8.98-8.89Z"/>
        <rect class="cls-4" x="237.76" y="42.53" width="15.34" height="59.98"/>
        <path class="cls-4" d="M295.03,41.21c-5.81,0-11.81.96-16.43,7.75l-.98-6.19h-14.2v59.74h15.34v-31.49c0-9.14,5.37-14.6,14.36-14.6.84,0,1.62.04,2.37.13l.41.05v-15.37h-.55c-.1-.02-.21-.02-.31-.02Z"/>
        <polygon class="cls-4" points="400.29 42.65 383.35 42.65 370.1 86.14 357.52 42.91 357.44 42.65 344.08 42.65 331.54 86.13 318.38 42.91 318.3 42.65 301.23 42.65 322.11 102.5 322.19 102.75 339.71 102.75 345.91 85 350.82 66.58 355.75 85.03 361.85 102.5 361.93 102.75 379.45 102.75 400.13 43.13 400.29 42.65"/>
        <path class="cls-4" d="M430.1,40.97c-18.98,0-31.73,12.56-31.73,31.25,0,19.64,12.57,31.85,32.8,31.85,10.06,0,19.89-3.71,25.64-9.69l.25-.26-9.86-9.73-.26.27c-3.38,3.5-10.53,5.39-15.54,5.39-9.46,0-16-4.52-17.17-11.84h45.99l.03-.33c1.12-12.02-1.35-21.74-7.14-28.1-5.25-5.76-13.21-8.8-23.03-8.8ZM445.48,65.39h-30.93c2.13-6.85,7.94-10.76,16.03-10.76s13.86,3.91,14.9,10.76Z"/>
        <path class="cls-4" d="M514.7,50.1c-3.63-5.36-10.74-8.77-18.49-8.77-9.12-.05-17.13,2.92-22.64,8.38-5.56,5.52-8.49,13.42-8.49,22.86s2.96,18,8.57,23.56c5.38,5.34,12.95,8.16,21.92,8.16.1,0,.2,0,.29,0,6.8-.12,15.21-3.42,18.88-9.53l.64,7.73h14.47v-59.74h-14.72l-.43,7.34ZM514.39,72.64c0,8.44-5.28,17.53-16.87,17.53-10.07,0-17.11-7.23-17.11-17.59s6.88-17.47,17.11-17.47c11.59,0,16.87,9.09,16.87,17.53Z"/>
        <polygon class="cls-4" points="602.3 42.65 585.58 42.65 577.34 62.64 568.71 86.35 559.95 62.38 551.71 42.65 535 42.65 560.47 102.53 560.57 102.75 576.85 102.75 602.08 43.16 602.3 42.65"/>
        <path class="cls-4" d="M653.7,49.77c-5.25-5.76-13.21-8.8-23.03-8.8-18.98,0-31.73,12.56-31.73,31.25,0,19.64,12.57,31.85,32.8,31.85,10.06,0,19.89-3.71,25.64-9.69l.25-.26-9.86-9.73-.26.27c-3.38,3.5-10.53,5.39-15.54,5.39-9.46,0-16-4.52-17.17-11.84h45.99l.03-.33c1.13-12.02-1.34-21.74-7.14-28.1ZM615.13,65.39c2.13-6.85,7.94-10.76,16.03-10.76s13.86,3.91,14.9,10.76h-30.93Z"/>
        <path class="cls-4" d="M187.98,18.61c-5.34,0-10.2,3.15-12.39,8.02l-34.04,75.88h17.79l7.13-15.68h43.01l7.01,15.68h17.91l-34.03-75.88c-2.18-4.87-7.05-8.02-12.39-8.02ZM202.86,71.48h-29.77l14.89-34.12,14.89,34.12Z"/>
      </g>
      <g>
        <path class="cls-1" d="M81.5,117.23c-9.09-5.05-21.1-12.52-26.73-19.36l-.48-.57c-1.15-1.38-2.34-2.74-3.53-4.03-3.88-4.22-8.03-8.02-12.33-11.3-1.74-1.33-3.53-2.6-5.32-3.76-.92-.6-1.81-1.15-2.64-1.65-2.09-1.25-4.63-1.59-6.97-.93-2.22.63-4,2.09-5.03,4.1-2,3.91-.62,8.74,3.14,11,3.02,1.81,5.98,3.93,8.79,6.3.36.3.51.79.38,1.23-1.03,3.76-2.06,9.93-2.45,12.41-.84,5.25,1.74,10.41,6.41,12.84l.17.09c2.04,1.05,4.44,1,6.42-.14,1.97-1.13,3.22-3.16,3.34-5.44.05-.98.11-1.96.18-2.87.04-.48.33-.87.78-1.03.14-.05.29-.08.43-.08.32,0,.62.13.86.37,3.92,4.02,8.15,7.65,12.56,10.8,4.24,3.03,9.26,4.63,14.52,4.63,1.91,0,3.83-.22,5.7-.65l.21-.05c2.62-.61,4.48-2.66,4.86-5.34.38-2.68-.91-5.26-3.26-6.57Z"/>
        <path class="cls-2" d="M129.52,52.76l-.02-.11c-.44-2.25-2.2-3.97-4.5-4.38-2.27-.4-4.42.55-5.58,2.49l-.07.11c-4.29,7.34-10.35,14.14-18.01,20.23-2.01,1.6-3.98,3.29-5.86,5.03-1.44,1.34-3.61,1.57-5.27.56-1.64-.99-3.28-2.08-4.87-3.24-3.45-2.5-6.77-5.4-9.88-8.61-1.62-1.67-3.17-3.41-4.63-5.19-1.96-2.39-4.05-4.72-6.22-6.93-4.6-4.69-13.46-11.14-16.07-13-.33-.23-.53-.58-.59-.98-.05-.4.06-.78.32-1.09,1.66-1.98,3.23-4.03,4.66-6.1,1.52-2.18,2.02-4.85,1.38-7.32-.62-2.41-2.23-4.36-4.52-5.48-3.85-1.9-8.42-.72-10.86,2.78-2.18,3.13-4.75,6.2-7.62,9.12-.27.27-.68.37-1.05.24-2.92-.95-5.92-1.73-8.91-2.31-.22-.04-.54-.1-.94-.15-5.93-.88-11.67,2.08-14.31,7.36l-.09.17c-.85,1.71-.78,3.72.19,5.39.98,1.69,2.74,2.77,4.68,2.88.91.05,1.81.11,2.65.17.39.03.71.26.85.63.14.38.06.78-.22,1.06-3.57,3.67-6.8,7.61-9.61,11.7-4,5.83-5.48,13.24-4.05,20.33l.02.11c.55,2.71,2.69,4.65,5.45,4.95,2.65.28,5.05-1.1,6.1-3.51l.06-.15c4.44-10.62,11.79-20.06,21.85-28.05.48-.37,1.11-.43,1.62-.15,5.26,2.9,10.3,6.67,14.96,11.21.57.55.58,1.47.04,2.04-2.32,2.44-4.5,5-6.48,7.61-1.55,2.04-1.26,4.95.65,6.63l3.38,2.97-.04.04c.53.47,1.06.94,1.59,1.41h0s.72.55.72.55c1.02.9,2.32,1.32,3.67,1.18,1.34-.14,2.58-.84,3.4-1.92,1.43-1.9,3-3.76,4.64-5.54.27-.3.65-.46,1.05-.47.42,0,.75.14,1.01.4,4.47,4.41,9.3,8.33,14.37,11.64,1.99,1.3,2.57,3.89,1.33,5.91-1.1,1.8-2.15,3.66-3.11,5.53-1.11,2.17-1.3,4.74-.5,7.04.76,2.21,2.32,3.95,4.39,4.91,1.16.54,2.39.81,3.65.81,3.21,0,6.11-1.77,7.57-4.63,1.32-2.59,2.86-5.15,4.56-7.59.99-1.43,2.81-2.09,4.54-1.65,3.65.94,8.56,1.91,12.04,2.57,3.51.66,6.99-1.02,8.67-4.16l.17-.31c1.26-2.38,1.27-5.22.02-7.61-1.26-2.41-3.63-4.03-6.34-4.35-.67-.08-1.31-.16-1.91-.24-.13-.02-.24-.04-.33-.06l-1.27-.29.91-.93c.07-.07.16-.16.27-.24,3.75-3.09,7.22-6.38,10.31-9.78h0c5.2-5.72,7.44-13.66,5.98-21.24Z"/>
        <path class="cls-3" d="M51.2,12.78c8.15,4.83,18.93,11.89,24.01,18.08.6.72,1.2,1.43,1.8,2.12,1.1,1.27,1.23,3.08.31,4.5-1.65,2.54-3.54,5.05-5.62,7.45-1.52,1.75-1.58,4.3-.15,6.07l.06.07c.17.22.35.44.52.66,1.53,1.94,3.16,3.81,4.84,5.56.89.93,2.1,1.45,3.39,1.45l.12.73-.02-.73c1.34-.03,2.62-.62,3.51-1.64,2.04-2.31,3.95-4.73,5.68-7.18,1.19-1.68,3.47-2.06,5.19-.87,1.77,1.22,3.59,2.38,5.41,3.45,2.13,1.25,4.7,1.48,7.03.62,2.36-.87,4.19-2.73,5.01-5.11,1.28-3.69-.36-7.93-3.9-10.07-2.4-1.45-4.77-3.09-7.03-4.86-1.18-.93-1.68-2.46-1.26-3.91,1.04-3.64,1.99-8.36,2.6-11.68.63-3.43-.91-6.93-3.84-8.7l-.34-.2c-2.45-1.46-5.45-1.57-8.02-.29-2.59,1.29-4.32,3.77-4.63,6.63l-.02.18c-.04.35-.26.62-.59.73-.33.11-.67.02-.91-.22-3.66-3.91-7.55-7.45-11.58-10.54C67.35.93,60.43-.8,53.78.35l-.28.05c-2.8.49-4.95,2.62-5.46,5.43-.51,2.78.73,5.51,3.17,6.95Z"/>
      </g>
    </g>
  </g>
</svg> 