<svg width="460" height="89" viewBox="0 0 460 89" fill="none" xmlns="http://www.w3.org/2000/svg">
<path d="M55.0844 79.8557C48.941 76.4457 40.8272 71.397 37.0191 66.7728L36.694 66.388C35.9178 65.4526 35.115 64.5371 34.3057 63.6613C31.6851 60.8086 28.8788 58.2411 25.9729 56.0252C24.7987 55.1296 23.5846 54.2671 22.3771 53.4843C21.7535 53.0796 21.1564 52.708 20.5925 52.3697C19.1794 51.5271 17.4611 51.295 15.8821 51.7395C14.3828 52.1641 13.182 53.1526 12.4854 54.5126C11.132 57.1531 12.0674 60.4171 14.6084 61.943C16.6517 63.1637 18.6487 64.5968 20.5461 66.2023C20.7915 66.408 20.8911 66.733 20.8048 67.0316C20.1082 69.5725 19.4116 73.7455 19.1462 75.4173C18.5757 78.9667 20.3205 82.4497 23.4784 84.095L23.5912 84.1548C24.9712 84.8646 26.5899 84.8315 27.9301 84.0619C29.2636 83.2989 30.1061 81.9256 30.1857 80.3865C30.2189 79.723 30.2587 79.0596 30.3052 78.4492C30.3317 78.1241 30.5307 77.8588 30.8293 77.7526C30.9222 77.7195 31.0283 77.6995 31.1212 77.6995C31.3401 77.6995 31.5391 77.7858 31.705 77.9517C34.3521 80.6651 37.2115 83.1198 40.1903 85.2494C43.0563 87.2994 46.4465 88.3808 50.0025 88.3808C51.2962 88.3808 52.5899 88.2349 53.857 87.943L53.9963 87.9098C55.7677 87.4985 57.0216 86.1119 57.2803 84.3007C57.5391 82.4895 56.6633 80.7447 55.0777 79.8623H55.0711L55.0844 79.8557Z" fill="white"/>
<path d="M87.5391 36.2882L87.5259 36.2152C87.2273 34.696 86.0398 33.535 84.4873 33.2563C82.9548 32.9843 81.5019 33.6279 80.719 34.9415L80.6726 35.0144C77.7734 39.9769 73.68 44.5678 68.4986 48.6878C67.1386 49.7692 65.8117 50.9103 64.5379 52.0845C63.5627 52.9868 62.0965 53.146 60.9753 52.4627C59.8674 51.7926 58.7594 51.0562 57.6847 50.2734C55.356 48.5816 53.107 46.6245 51.0105 44.4551C49.9158 43.3272 48.8676 42.153 47.8791 40.9455C46.5522 39.3334 45.1391 37.7544 43.6729 36.2617C40.5614 33.0905 34.5773 28.7317 32.8126 27.4778C32.587 27.3253 32.4543 27.0864 32.4145 26.8144C32.3813 26.5424 32.4543 26.2903 32.6334 26.078C33.7546 24.7378 34.8161 23.3513 35.7847 21.9581C36.8131 20.4853 37.1514 18.6807 36.7202 17.0089C36.3022 15.3834 35.2142 14.0632 33.6684 13.3069C31.0677 12.0198 27.9761 12.8226 26.3308 15.1844C24.858 17.3008 23.1198 19.3773 21.1826 21.3477C20.9968 21.5335 20.7248 21.5998 20.4727 21.5069C18.5023 20.8634 16.4722 20.3393 14.4487 19.9479C14.3028 19.9213 14.0838 19.8815 13.8118 19.8483C9.80471 19.2513 5.92363 21.2548 4.13899 24.8241L4.07929 24.9369C3.5021 26.0913 3.55518 27.4513 4.20534 28.5791C4.86877 29.7202 6.05632 30.45 7.36992 30.523C7.98691 30.5561 8.59063 30.5959 9.16118 30.6357C9.42656 30.6556 9.63885 30.8082 9.73837 31.0604C9.83125 31.3191 9.77817 31.5845 9.59241 31.7769C7.17752 34.2581 4.99483 36.9185 3.09741 39.685C0.397237 43.6258 -0.604549 48.6347 0.357428 53.4247L0.3707 53.4977C0.742222 55.3287 2.18851 56.6423 4.05275 56.8413C5.84402 57.0337 7.46279 56.0983 8.17266 54.4663L8.21248 54.3667C11.2112 47.1884 16.1803 40.8128 22.9805 35.4125C23.3056 35.1604 23.7302 35.1206 24.0751 35.313C27.6311 37.2701 31.0346 39.8177 34.1859 42.8894C34.5707 43.2609 34.5773 43.8845 34.2124 44.2693C32.6467 45.9213 31.1739 47.6462 29.8337 49.4109C28.7855 50.7909 28.9846 52.7546 30.2716 53.8891L32.5538 55.8993L32.5273 55.9258C32.8855 56.2443 33.2438 56.5627 33.602 56.8812L34.0864 57.2527C34.7763 57.8631 35.6521 58.1417 36.5676 58.0488C37.4699 57.9559 38.3124 57.4783 38.8631 56.7485C39.8317 55.4614 40.8932 54.2075 42.0011 53.0067C42.1869 52.8011 42.439 52.6949 42.711 52.6883C42.9963 52.6883 43.2152 52.7811 43.3943 52.9603C46.4129 55.9391 49.677 58.5928 53.107 60.8286C54.4537 61.7043 54.8452 63.4558 54.0026 64.8224C53.2596 66.0365 52.5497 67.2971 51.8995 68.5576C51.1498 70.0238 51.0238 71.7619 51.5612 73.3144C52.072 74.8071 53.1269 75.9814 54.5267 76.6315C55.3096 76.9964 56.1389 77.1822 56.9947 77.1822C59.1641 77.1822 61.1212 75.988 62.1097 74.0508C62.9987 72.2993 64.0403 70.5678 65.1881 68.9225C65.8582 67.9538 67.0855 67.5093 68.2531 67.8079C70.7211 68.4448 74.0383 69.1016 76.3868 69.5461C78.7619 69.9906 81.1105 68.8561 82.2449 66.7331L82.3577 66.5208C83.2069 64.9153 83.2135 62.9914 82.371 61.3792C81.5218 59.7538 79.9163 58.6525 78.0852 58.4402C77.6341 58.3872 77.2028 58.3341 76.7915 58.281C76.7053 58.2677 76.6323 58.2545 76.566 58.2412L75.7101 58.0422L76.3271 57.4119C76.3735 57.3655 76.4333 57.3058 76.5129 57.2527C79.0472 55.1629 81.3891 52.9404 83.4789 50.6449C86.9951 46.7771 88.5077 41.4165 87.5192 36.2882H87.5259H87.5391Z" fill="white"/>
<path d="M34.6029 9.27318C40.1094 12.5373 47.3939 17.3074 50.8304 21.4936C51.2351 21.9779 51.6398 22.4622 52.0445 22.9266C52.7876 23.7825 52.8738 25.0098 52.2568 25.9652C51.1422 27.6834 49.8618 29.3752 48.462 31.0006C47.4337 32.1815 47.3938 33.9065 48.3625 35.1006L48.4023 35.1471C48.515 35.293 48.6411 35.4456 48.7539 35.5916C49.7888 36.9052 50.8901 38.1657 52.0246 39.3466C52.6283 39.9768 53.4444 40.3285 54.3135 40.3285L54.3931 40.8194L54.3798 40.3285C55.2821 40.3086 56.1512 39.9105 56.7549 39.2205C58.1348 37.6615 59.4219 36.0228 60.5962 34.3708C61.3989 33.2364 62.9381 32.9777 64.1057 33.7804C65.2999 34.6031 66.5339 35.3859 67.7612 36.109C69.2009 36.9516 70.9391 37.1108 72.5114 36.527C74.1036 35.9365 75.3443 34.6827 75.8949 33.0705C76.7574 30.576 75.6495 27.71 73.2611 26.2637C71.6423 25.2818 70.0368 24.1739 68.5109 22.9797C67.7148 22.3494 67.3764 21.3145 67.6617 20.3393C68.365 17.8779 69.0085 14.6868 69.4198 12.4444C69.8444 10.129 68.8028 7.76056 66.8258 6.56638L66.5936 6.43369C64.935 5.44517 62.9115 5.37221 61.1733 6.23467C59.4219 7.10376 58.2542 8.78225 58.0419 10.7128L58.0287 10.8323C58.0021 11.0711 57.8562 11.2502 57.6306 11.3232C57.4051 11.3962 57.1795 11.3365 57.0136 11.1772C54.539 8.53679 51.9118 6.14178 49.1851 4.05197C45.523 1.24565 40.8458 0.0780013 36.3543 0.854218L36.1619 0.887401C34.2711 1.21912 32.8182 2.65877 32.4732 4.55618C32.1283 6.4337 32.9642 8.27803 34.6161 9.25328H34.6095L34.6029 9.27318Z" fill="white"/>
<path d="M455.001 33.1037C451.232 28.2607 445.427 25.6998 438.209 25.6998C431.422 25.6998 425.717 27.9887 421.703 32.3209C417.749 36.5868 415.659 42.5908 415.659 49.6763C415.659 56.7617 417.776 62.8454 421.789 67.1113C425.816 71.3904 431.529 73.6594 438.296 73.6594C448.857 73.6594 456.686 68.0268 458.736 58.9643L458.835 58.5066H448.731L448.645 58.7653C447.756 61.7043 444.499 65.1342 438.302 65.1342C434.7 65.1342 431.767 63.9932 429.618 61.7508C427.588 59.6211 426.327 56.4964 425.982 52.7015H459.141L459.187 52.3897C460.195 44.5878 458.756 37.9203 455.007 33.1104L455.001 33.1037ZM437.864 34.0458C441.38 34.0458 444.3 35.1737 446.31 37.3099C448.141 39.2737 449.129 41.9473 449.163 45.0588H426.261C426.725 41.7018 428.019 38.9353 429.983 37.0246C432 35.0741 434.726 34.0392 437.864 34.0392V34.0458Z" fill="white"/>
<path d="M415.533 27.02L415.361 27.5242L399.624 72.3258H386.899L386.813 72.0804L370.99 27.02H381.857L381.944 27.2721L393.262 61.0607L404.673 27.02H415.533Z" fill="white"/>
<path d="M369.418 63.4491V44.0171C369.418 37.887 367.693 33.2165 364.283 30.1249C361.046 27.1859 356.315 25.6931 350.205 25.6931C344.407 25.6931 339.763 27.0531 336.419 29.7334C333.062 32.4137 331.058 36.3744 330.481 41.5027L330.428 41.914H340.373L340.419 41.589C340.711 39.2338 341.667 37.4093 343.265 36.1621C344.904 34.8684 347.22 34.2182 350.125 34.2182C352.852 34.2182 355.094 34.802 356.614 35.91C358.286 37.1241 359.135 38.9618 359.135 41.3568C359.135 42.5974 358.883 43.44 358.398 43.9707C357.994 44.382 357.423 44.6341 356.574 44.7535L345.329 45.5895C340.207 45.9345 336.2 47.3609 333.447 49.789C330.72 52.1906 329.347 55.4547 329.347 59.4818C329.347 63.5088 330.813 67.1311 333.593 69.6721C336.445 72.2661 340.486 73.646 345.269 73.646C352.335 73.646 357.775 70.6805 360.661 65.2868C360.919 67.3567 361.629 69.002 362.757 70.1697C364.137 71.5894 366.134 72.3192 368.708 72.3192H373.06V63.4424H369.438L369.418 63.4491ZM346.934 65.2204C344.599 65.2204 342.788 64.6897 341.541 63.6481C340.26 62.5866 339.61 61.0076 339.61 58.9576C339.61 57.0801 340.161 55.6803 341.302 54.6586C342.529 53.5639 344.493 52.9005 347.14 52.6948L347.279 52.6816L359.294 51.8324V53.1261C359.294 56.6423 358.08 59.6609 355.798 61.8767C353.562 64.0395 350.417 65.2204 346.928 65.2204H346.934Z" fill="white"/>
<path d="M321.007 33.1037C317.239 28.2607 311.434 25.6998 304.216 25.6998C297.429 25.6998 291.723 27.9887 287.716 32.3209C283.756 36.5868 281.659 42.5908 281.659 49.6763C281.659 56.7617 283.776 62.8454 287.789 67.1113C291.816 71.3904 297.528 73.6594 304.296 73.6594C314.857 73.6594 322.686 68.0268 324.736 58.9643L324.835 58.5066H314.731L314.658 58.7653C313.756 61.7043 310.512 65.1342 304.302 65.1342C300.7 65.1342 297.767 63.9932 295.618 61.7508C293.588 59.6211 292.327 56.4964 291.982 52.7015H325.141L325.187 52.3897C326.209 44.5878 324.762 37.9203 321.007 33.1104V33.1037ZM292.261 45.0654C292.725 41.7084 294.019 38.9419 295.983 37.0312C298 35.0808 300.726 34.0458 303.864 34.0458C307.38 34.0458 310.3 35.1737 312.31 37.3099C314.147 39.2737 315.129 41.9473 315.163 45.0588H292.261V45.0654Z" fill="white"/>
<path d="M280.718 27.02L280.566 27.4977L267.051 72.3258H256.238L256.165 72.0604L248.024 42.2922L239.731 72.3258H229.004L228.931 72.0671L215.337 27.02H226.031L226.104 27.292L234.411 58.606L243.148 27.02H252.907L252.98 27.292L261.558 58.606L270.024 27.02H280.718Z" fill="white"/>
<path d="M211.509 27.02V35.8968H196.833V72.3258H186.63V37.2899C186.63 33.9927 187.532 31.4318 189.297 29.6605C191.055 27.9156 193.616 27.02 196.893 27.02H211.502H211.509Z" fill="white"/>
<path d="M180.91 13.6916C180.91 17.1348 178.263 19.6293 174.614 19.6293C170.965 19.6293 168.318 17.1348 168.318 13.6916C168.318 10.2484 171.085 7.65436 174.614 7.65436C178.144 7.65436 180.91 10.3015 180.91 13.6916Z" fill="white"/>
<path d="M179.67 27.02H169.467V72.3258H179.67V27.02Z" fill="white"/>
<path d="M142.704 15.1578C141.403 11.834 138.252 9.69775 134.683 9.69775C131.113 9.69775 127.975 11.834 126.675 15.1578L104.218 72.3258H115.715L122.263 55.3485H147.129L153.577 72.087L153.677 72.3258H165.174L142.717 15.1578H142.704ZM125.454 46.0406L134.636 22.0442L143.831 46.0406H125.454Z" fill="white"/>
</svg>
