<?xml version="1.0" encoding="UTF-8"?>
<svg id="Layer_2" data-name="Layer 2" xmlns="http://www.w3.org/2000/svg" xmlns:xlink="http://www.w3.org/1999/xlink" viewBox="0 0 424.67 424.25">
  <defs>
    <style>
      .cls-1 {
        fill: url(#linear-gradient);
      }

      .cls-1, .cls-2, .cls-3 {
        stroke-width: 0px;
      }

      .cls-2 {
        fill: url(#linear-gradient-2);
      }

      .cls-3 {
        fill: url(#linear-gradient-3);
      }
    </style>
    <linearGradient id="linear-gradient" x1="108.24" y1="374.88" x2="385.33" y2="190.99" gradientUnits="userSpaceOnUse">
      <stop offset="0" stop-color="#06f"/>
      <stop offset="1" stop-color="#00c6c3"/>
    </linearGradient>
    <linearGradient id="linear-gradient-2" x1="66.14" y1="311.44" x2="343.22" y2="127.55" xlink:href="#linear-gradient"/>
    <linearGradient id="linear-gradient-3" x1="22.72" y1="246" x2="299.8" y2="62.12" xlink:href="#linear-gradient"/>
  </defs>
  <g id="Layer_1-2" data-name="Layer 1">
    <g>
      <path class="cls-1" d="M266.33,383.08c-29.7-16.52-68.96-40.9-87.33-63.28l-1.57-1.87c-3.76-4.52-7.64-8.95-11.54-13.18-12.69-13.78-26.25-26.21-40.3-36.94-5.7-4.35-11.55-8.48-17.39-12.28-3-1.95-5.91-3.77-8.63-5.4-6.84-4.1-15.14-5.21-22.77-3.02-7.24,2.07-13.08,6.84-16.44,13.41-6.53,12.77-2.02,28.56,10.27,35.94,9.87,5.93,19.54,12.85,28.73,20.58,1.17.99,1.66,2.57,1.26,4.03-3.36,12.27-6.72,32.45-8.02,40.55-2.74,17.16,5.68,34.02,20.95,41.96l.57.3c6.65,3.44,14.5,3.27,20.98-.44,6.44-3.69,10.52-10.34,10.91-17.77.17-3.21.36-6.39.58-9.38.12-1.58,1.07-2.84,2.54-3.38.47-.17.94-.25,1.4-.25,1.04,0,2.03.42,2.81,1.22,12.82,13.12,26.63,24.99,41.04,35.28,13.85,9.89,30.26,15.12,47.44,15.12,6.24,0,12.51-.71,18.62-2.11l.69-.16c8.56-2,14.66-8.68,15.88-17.44,1.23-8.75-2.96-17.18-10.67-21.46Z"/>
      <path class="cls-2" d="M423.24,172.41l-.07-.37c-1.42-7.36-7.19-12.97-14.69-14.3-7.43-1.32-14.43,1.79-18.23,8.12l-.21.35c-14.02,23.97-33.82,46.22-58.84,66.1-6.58,5.22-13.02,10.76-19.15,16.45-4.71,4.38-11.8,5.13-17.23,1.84-5.36-3.24-10.71-6.8-15.91-10.58-11.27-8.18-22.13-17.64-32.28-28.13-5.28-5.45-10.37-11.15-15.12-16.94-6.41-7.81-13.25-15.42-20.32-22.64-15.03-15.34-43.98-36.39-52.5-42.47-1.06-.75-1.75-1.89-1.92-3.21-.17-1.3.2-2.56,1.03-3.56,5.43-6.48,10.56-13.18,15.24-19.92,4.96-7.13,6.6-15.86,4.51-23.93-2.04-7.87-7.28-14.23-14.76-17.91-12.59-6.19-27.51-2.37-35.5,9.1-7.13,10.24-15.51,20.27-24.89,29.81-.87.89-2.22,1.21-3.44.78-9.54-3.1-19.34-5.65-29.1-7.56-.72-.14-1.78-.31-3.07-.5-19.37-2.88-38.15,6.78-46.76,24.05l-.28.57c-2.77,5.59-2.54,12.17.63,17.61,3.22,5.53,8.94,9.06,15.31,9.42,2.97.17,5.92.35,8.65.56,1.27.09,2.31.86,2.77,2.06.47,1.25.19,2.54-.72,3.47-11.66,12-22.22,24.86-31.39,38.22C1.91,207.96-2.92,232.17,1.73,255.34l.07.35c1.79,8.86,8.78,15.21,17.81,16.17,8.67.91,16.5-3.59,19.93-11.48l.21-.48c14.51-34.69,38.53-65.54,71.39-91.65,1.55-1.21,3.62-1.4,5.29-.49,17.2,9.48,33.64,21.8,48.87,36.62,1.85,1.8,1.9,4.79.12,6.67-7.58,7.97-14.7,16.33-21.18,24.87-5.06,6.67-4.13,16.18,2.12,21.67l11.05,9.7-.13.14c1.72,1.54,3.46,3.08,5.21,4.6h.01s2.35,1.79,2.35,1.79c3.33,2.93,7.58,4.3,11.99,3.84,4.39-.45,8.43-2.73,11.11-6.27,4.68-6.2,9.79-12.29,15.18-18.1.9-.97,2.11-1.52,3.42-1.54,1.36.02,2.44.46,3.3,1.31,14.6,14.42,30.4,27.21,46.97,38.03,6.49,4.24,8.4,12.72,4.36,19.31-3.61,5.88-7.03,11.97-10.16,18.08-3.64,7.1-4.24,15.48-1.64,23,2.48,7.21,7.58,12.91,14.34,16.04,3.79,1.76,7.81,2.65,11.93,2.65,10.5,0,19.98-5.8,24.75-15.13,4.33-8.47,9.34-16.82,14.89-24.82,3.24-4.67,9.19-6.84,14.82-5.39,11.93,3.07,27.98,6.25,39.34,8.38,11.47,2.14,22.85-3.32,28.35-13.59l.54-1.02c4.13-7.77,4.15-17.06.06-24.86-4.13-7.87-11.87-13.18-20.7-14.21-2.18-.25-4.28-.51-6.26-.77-.43-.06-.79-.13-1.09-.2l-4.14-.96,2.96-3.04c.23-.24.52-.51.87-.8,12.25-10.1,23.58-20.85,33.68-31.95h0c17-18.69,24.31-44.64,19.54-69.41Z"/>
      <path class="cls-3" d="M167.31,41.75c26.62,15.78,61.84,38.84,78.45,59.07,1.95,2.37,3.91,4.68,5.87,6.94,3.61,4.15,4.01,10.06,1,14.7-5.39,8.31-11.57,16.51-18.36,24.35-4.95,5.71-5.15,14.06-.47,19.84l.19.23c.57.71,1.15,1.43,1.71,2.14,5.01,6.33,10.33,12.45,15.81,18.18,2.92,3.05,6.85,4.73,11.07,4.73l.38,2.39-.05-2.39c4.39-.09,8.57-2.04,11.48-5.35,6.65-7.55,12.9-15.45,18.57-23.46,3.88-5.48,11.33-6.72,16.95-2.83,5.78,3.99,11.73,7.78,17.67,11.27,6.96,4.09,15.34,4.83,22.97,2.02,7.71-2.84,13.68-8.92,16.38-16.68,4.2-12.06-1.16-25.9-12.74-32.89-7.85-4.74-15.58-10.09-22.96-15.89-3.86-3.03-5.49-8.04-4.13-12.77,3.4-11.89,6.5-27.32,8.5-38.17,2.07-11.21-2.98-22.63-12.56-28.42l-1.11-.66c-8.01-4.77-17.82-5.12-26.22-.93-8.45,4.21-14.1,12.31-15.12,21.65l-.06.58c-.14,1.14-.85,2.02-1.92,2.38-1.09.35-2.2.08-2.98-.73-11.95-12.76-24.68-24.34-37.85-34.45C220.07,3.04,197.46-2.61,175.73,1.13l-.93.16c-9.17,1.61-16.17,8.57-17.85,17.73-1.66,9.09,2.4,18.01,10.35,22.72Z"/>
    </g>
  </g>
</svg>