<svg width="101" height="100" viewBox="0 0 101 100" fill="none" xmlns="http://www.w3.org/2000/svg">
<path d="M63.0913 89.7713C56.1541 85.9173 46.9884 80.2164 42.6917 74.9963L42.3254 74.5613C41.4478 73.5081 40.5396 72.4702 39.6314 71.4857C36.6703 68.2651 33.5031 65.3651 30.2215 62.8618C28.8936 61.8468 27.5275 60.8776 26.1614 59.9923C25.4593 59.5344 24.7801 59.1147 24.1467 58.7331C22.5516 57.7791 20.6132 57.5196 18.8274 58.0233C17.1331 58.5041 15.7747 59.6184 14.9886 61.1523C13.4623 64.1363 14.5154 67.8225 17.385 69.5472C19.6897 70.9286 21.9487 72.5465 24.0932 74.3552C24.368 74.5842 24.4825 74.9581 24.3832 75.2939C23.5972 78.1634 22.8111 82.8722 22.5135 84.7649C21.8724 88.7715 23.8414 92.7095 27.4054 94.564L27.5351 94.6327C29.092 95.434 30.9236 95.3959 32.4347 94.5258C33.9382 93.6635 34.8921 92.1142 34.9837 90.3742C35.0219 89.6263 35.0676 88.8784 35.1211 88.1839C35.1516 87.8176 35.3729 87.5199 35.7163 87.3978C35.8232 87.3597 35.9377 87.3368 36.0445 87.3368C36.2887 87.3368 36.5177 87.436 36.7008 87.6191C39.6925 90.6871 42.9207 93.4574 46.2863 95.8614C49.5221 98.1738 53.3532 99.3949 57.3675 99.3949C58.8252 99.3949 60.2905 99.227 61.7176 98.8988L61.8779 98.8606C63.8774 98.3951 65.2969 96.8306 65.5869 94.7853C65.8769 92.74 64.8924 90.771 63.0989 89.7713H63.0913Z" fill="#1692E5"/>
<path d="M99.7403 40.5697L99.725 40.4858C99.3892 38.7686 98.046 37.456 96.2907 37.1431C94.5583 36.8378 92.9175 37.5628 92.0322 39.0434L91.9788 39.1273C88.7048 44.729 84.08 49.9186 78.2341 54.5663C76.7001 55.7873 75.1967 57.0771 73.7619 58.405C72.663 59.4277 71.0069 59.6032 69.74 58.8324C68.4884 58.0769 67.2368 57.245 66.0234 56.3597C63.3904 54.4518 60.8567 52.2386 58.4832 49.7888C57.2469 48.5143 56.064 47.1864 54.9497 45.828C53.4539 44.004 51.8589 42.2258 50.2028 40.5392C46.6922 36.9599 39.9305 32.0374 37.9387 30.6179C37.6868 30.4424 37.5342 30.1753 37.4884 29.87C37.4502 29.5648 37.5342 29.2748 37.7326 29.0382C38.9995 27.5271 40.1976 25.9626 41.289 24.3828C42.449 22.7191 42.8306 20.6815 42.3422 18.7964C41.869 16.9572 40.6403 15.469 38.8926 14.6142C35.9544 13.1642 32.4667 14.0648 30.6046 16.7359C28.9409 19.1246 26.9795 21.4675 24.7892 23.696C24.5831 23.902 24.2702 23.9784 23.9879 23.8791C21.7594 23.1541 19.4699 22.5589 17.188 22.1162C17.0201 22.0857 16.7759 22.0399 16.4706 22.0017C11.945 21.3301 7.56442 23.5891 5.54965 27.6187L5.48096 27.7484C4.83227 29.0534 4.88569 30.5874 5.62597 31.8619C6.37387 33.1517 7.71706 33.9759 9.19761 34.0598C9.89209 34.098 10.5789 34.1438 11.22 34.1896C11.5176 34.2125 11.7619 34.388 11.8687 34.6704C11.9756 34.9604 11.9145 35.2657 11.7008 35.4793C8.97629 38.2802 6.51124 41.2871 4.36673 44.4085C1.31405 48.8577 0.184552 54.5128 1.27589 59.9237L1.29115 60.0077C1.7109 62.0759 3.34408 63.5564 5.45044 63.7854C7.47284 63.9991 9.30445 62.9459 10.1058 61.1066L10.1516 60.9922C13.5401 52.8873 19.1494 45.683 26.8269 39.5852C27.1932 39.3028 27.674 39.257 28.0632 39.4707C32.0775 41.6839 35.9239 44.5611 39.4803 48.0259C39.9153 48.4456 39.9229 49.1478 39.5108 49.5828C37.7402 51.4449 36.0765 53.3986 34.5654 55.3905C33.3825 56.9474 33.6038 59.1682 35.0615 60.4503L37.641 62.7169L37.6105 62.7475C38.015 63.1062 38.4195 63.4649 38.8239 63.8235L39.3734 64.2433C40.1518 64.9301 41.144 65.2507 42.1743 65.1438C43.1969 65.037 44.1432 64.5028 44.769 63.6785C45.8604 62.2285 47.0586 60.809 48.3102 59.4506C48.5162 59.2216 48.8062 59.0995 49.1115 59.0919C49.432 59.0919 49.6839 59.1987 49.8823 59.3971C53.2937 62.7627 56.9798 65.7544 60.8491 68.2805C62.3678 69.2726 62.8104 71.2492 61.8641 72.7908C61.0246 74.1645 60.2233 75.584 59.4906 77.0111C58.6435 78.6672 58.4985 80.6286 59.109 82.3839C59.689 84.0705 60.8796 85.3984 62.4594 86.131C63.3446 86.5432 64.2833 86.7492 65.2449 86.7492C67.6947 86.7492 69.9079 85.3984 71.0221 83.2157C72.0295 81.2391 73.2048 79.2854 74.5022 77.4233C75.2577 76.3319 76.6467 75.8282 77.967 76.164C80.7526 76.8814 84.4997 77.6217 87.1556 78.1254C89.8343 78.6291 92.4902 77.3469 93.7723 74.9506L93.902 74.714C94.8636 72.8977 94.8713 70.7302 93.9173 68.9063C92.9557 67.067 91.147 65.8307 89.0788 65.5865C88.5675 65.5254 88.079 65.4644 87.6211 65.4033C87.5219 65.388 87.438 65.3728 87.3693 65.3575L86.4 65.1362L87.0945 64.4264C87.148 64.373 87.2166 64.3043 87.3006 64.2433C90.1625 61.8851 92.8107 59.3743 95.1689 56.7795C99.1374 52.4141 100.847 46.3545 99.7327 40.5697H99.7403Z" fill="#1692E5"/>
<path d="M39.9668 10.0573C46.1866 13.7435 54.4136 19.1315 58.2905 23.8555C58.7484 24.405 59.2063 24.9468 59.6642 25.4734C60.5037 26.4426 60.6029 27.824 59.9008 28.9077C58.6416 30.8461 57.1992 32.7617 55.6118 34.5933C54.4518 35.9289 54.406 37.8749 55.4973 39.2258L55.5431 39.2792C55.6729 39.4471 55.8102 39.615 55.94 39.7829C57.1076 41.2634 58.3516 42.6906 59.6337 44.0261C60.3129 44.7359 61.2364 45.1327 62.2209 45.1327L62.3125 45.6898L62.2972 45.1327C63.3198 45.1098 64.2967 44.6595 64.9759 43.8811C66.5328 42.1182 67.9904 40.2713 69.3107 38.4015C70.2189 37.1194 71.9589 36.8294 73.2716 37.7376C74.6224 38.6686 76.0114 39.5539 77.4004 40.3705C79.0259 41.3245 80.9873 41.5 82.7654 40.8437C84.5665 40.1797 85.9631 38.7602 86.5889 36.9439C87.5658 34.1278 86.3142 30.8919 83.6126 29.2587C81.781 28.1521 79.9722 26.9005 78.2475 25.5497C77.3469 24.84 76.9653 23.6723 77.2859 22.5657C78.0796 19.7878 78.8046 16.1856 79.2701 13.6519C79.7509 11.0342 78.5756 8.3631 76.3395 7.01229L76.0801 6.85965C74.2103 5.74542 71.9208 5.66147 69.9594 6.63833C67.9828 7.62283 66.6625 9.51549 66.4259 11.6982L66.4107 11.8355C66.3802 12.1026 66.2123 12.3087 65.9604 12.3926C65.7086 12.4766 65.4491 12.4079 65.2659 12.2247C62.4727 9.24075 59.504 6.53912 56.4284 4.18092C52.292 1.01376 47.0109 -0.306527 41.9358 0.57112L41.7221 0.609279C39.5852 0.983233 37.9444 2.60879 37.5552 4.7533C37.1659 6.87492 38.1123 8.95837 39.9744 10.0573H39.9668Z" fill="#1692E5"/>
</svg>
